<?xml version="1.0" encoding="utf-8"?>
<!-- Generator: Adobe Illustrator 18.0.0, SVG Export Plug-In . SVG Version: 6.00 Build 0)  -->
<!DOCTYPE svg PUBLIC "-//W3C//DTD SVG 1.1//EN" "http://www.w3.org/Graphics/SVG/1.1/DTD/svg11.dtd">
<svg version="1.1" id="Layer_1" xmlns="http://www.w3.org/2000/svg" xmlns:xlink="http://www.w3.org/1999/xlink" x="0px" y="0px"
	 viewBox="0 0 15.7 18.3" enable-background="new 0 0 15.7 18.3" xml:space="preserve">
<g>
	<path fill="#7B8095" d="M4.2,10.7c0,0.1,0.1,0.2,0.2,0.2h6.8c0.1,0,0.2-0.1,0.2-0.2V9.9c0-0.1-0.1-0.2-0.2-0.2H4.4
		c-0.1,0-0.2,0.1-0.2,0.2V10.7z"/>
	<path fill="#7B8095" d="M4.4,8.4h6.8c0.1,0,0.2-0.1,0.2-0.2V7.4c0-0.1-0.1-0.2-0.2-0.2H4.4c-0.1,0-0.2,0.1-0.2,0.2v0.8
		C4.2,8.3,4.3,8.4,4.4,8.4z"/>
	<path fill="#7B8095" d="M4.2,13.2c0,0.1,0.1,0.2,0.2,0.2h4.3V13c0-0.3,0.1-0.5,0.2-0.8H4.4c-0.1,0-0.2,0.1-0.2,0.2V13.2z"/>
	<path fill="#7B8095" d="M14.1,12.2h-3.7c-0.4,0-0.8,0.4-0.8,0.8v3.7H2c-0.2,0-0.4-0.2-0.4-0.4V5.4H0v10.9c0,1.1,0.9,2,2,2h7.8l0,0
		c0.1,0,0.2-0.1,0.3-0.2l5.4-5.4c0.1-0.1,0.2-0.2,0.2-0.3l0,0V5.4h-1.6V12.2z M14.1,13l-3.7,3.7h-0.1V13L14.1,13L14.1,13z"/>
	<path fill="#7B8095" d="M13.7,0H2C0.9,0,0,0.9,0,2v2.2h1.4h0.2h12.5h0.2h1.4V2C15.7,0.9,14.8,0,13.7,0z"/>
</g>
</svg>
