<?xml version="1.0" encoding="utf-8"?>
<!-- Generator: Adobe Illustrator 18.0.0, SVG Export Plug-In . SVG Version: 6.00 Build 0)  -->
<!DOCTYPE svg PUBLIC "-//W3C//DTD SVG 1.1//EN" "http://www.w3.org/Graphics/SVG/1.1/DTD/svg11.dtd">
<svg version="1.1" id="Layer_1" xmlns="http://www.w3.org/2000/svg" xmlns:xlink="http://www.w3.org/1999/xlink" x="0px" y="0px"
	 viewBox="0 0 595.3 841.9" enable-background="new 0 0 595.3 841.9" xml:space="preserve">
<g>
	<path fill="#FF921E" d="M159.2,479.7c0,3.8,3.8,7.6,7.6,7.6h257.8c3.8,0,7.6-3.8,7.6-7.6v-30.3c0-3.8-3.8-7.6-7.6-7.6H166.8
		c-3.8,0-7.6,3.8-7.6,7.6L159.2,479.7L159.2,479.7z"/>
	<path fill="#FF921E" d="M166.8,392.5h257.8c3.8,0,7.6-3.8,7.6-7.6v-30.3c0-3.8-3.8-7.6-7.6-7.6H166.8c-3.8,0-7.6,3.8-7.6,7.6v30.3
		C159.2,388.7,163,392.5,166.8,392.5z"/>
	<path fill="#FF921E" d="M159.2,574.5c0,3.8,3.8,7.6,7.6,7.6h163v-15.2c0-11.4,3.8-19,7.6-30.3H166.8c-3.8,0-7.6,3.8-7.6,7.6
		L159.2,574.5L159.2,574.5z"/>
	<path fill="#FF921E" d="M534.6,536.6H394.3c-15.2,0-30.3,15.2-30.3,30.3v140.3H75.8c-7.6,0-15.2-7.6-15.2-15.2V278.8H0V692
		c0,41.7,34.1,75.8,75.8,75.8h295.7l0,0c3.8,0,7.6-3.8,11.4-7.6l204.7-204.7c3.8-3.8,7.6-7.6,7.6-11.4l0,0V278.8h-60.7L534.6,536.6
		L534.6,536.6z M534.6,566.9L394.3,707.2h-3.8V566.9H534.6L534.6,566.9z"/>
	<path fill="#FF921E" d="M519.4,74H75.8C34.1,74,0,108.1,0,149.8v83.4h53.1h7.6h473.9h7.6h53.1v-83.4C595.3,108.1,561.2,74,519.4,74
		z"/>
</g>
</svg>
