<?xml version="1.0" encoding="utf-8"?>
<!-- Generator: Adobe Illustrator 18.0.0, SVG Export Plug-In . SVG Version: 6.00 Build 0)  -->
<!DOCTYPE svg PUBLIC "-//W3C//DTD SVG 1.1//EN" "http://www.w3.org/Graphics/SVG/1.1/DTD/svg11.dtd">
<svg version="1.1" id="Layer_1" xmlns="http://www.w3.org/2000/svg" xmlns:xlink="http://www.w3.org/1999/xlink" x="0px" y="0px"
	 viewBox="0 0 595.3 841.9" enable-background="new 0 0 595.3 841.9" xml:space="preserve">
<path fill="#FF921E" d="M591.3,395.3l-102.5-90.7V202.2c0-7.9-7.9-15.8-15.8-15.8h-43.4c-7.9,0-15.8,7.9-15.8,15.8v31.5L311.4,143
	c-7.9-3.9-19.7-3.9-27.6,0L3.9,395.3c-7.9,3.9-3.9,11.8,3.9,11.8h78.8V691c0,7.9,7.9,15.8,15.8,15.8h390.3c7.9,0,15.8-7.9,15.8-15.8
	V407.1h78.8C595.3,407.1,599.2,399.3,591.3,395.3z M323.3,509.6v59.1c0,7.9-3.9,11.8-11.8,11.8h-23.7c-7.9,0-11.8-3.9-11.8-11.8
	v-59.1c-11.8-7.9-15.8-19.7-15.8-31.5c0-19.7,15.8-39.4,39.4-39.4c19.7,0,39.4,15.8,39.4,39.4C339,489.9,331.1,501.8,323.3,509.6z"
	/>
</svg>
