<?xml version="1.0" encoding="utf-8"?>
<!-- Generator: Adobe Illustrator 18.0.0, SVG Export Plug-In . SVG Version: 6.00 Build 0)  -->
<!DOCTYPE svg PUBLIC "-//W3C//DTD SVG 1.1//EN" "http://www.w3.org/Graphics/SVG/1.1/DTD/svg11.dtd">
<svg version="1.1" id="Layer_1" xmlns="http://www.w3.org/2000/svg" xmlns:xlink="http://www.w3.org/1999/xlink" x="0px" y="0px"
	 viewBox="0 0 15.1 14.3" enable-background="new 0 0 15.1 14.3" xml:space="preserve">
<path fill="#7B8095" d="M15,6.5l-2.6-2.3V1.6c0-0.2-0.2-0.4-0.4-0.4h-1.1c-0.2,0-0.4,0.2-0.4,0.4v0.8L7.9,0.1C7.7,0,7.4,0,7.2,0.1
	L0.1,6.5C-0.1,6.6,0,6.8,0.2,6.8h2v7.2c0,0.2,0.2,0.4,0.4,0.4h9.9c0.2,0,0.4-0.2,0.4-0.4V6.8h2C15.1,6.8,15.2,6.6,15,6.5z M8.2,9.4
	v1.5c0,0.2-0.1,0.3-0.3,0.3H7.3c-0.2,0-0.3-0.1-0.3-0.3V9.4C6.7,9.2,6.6,8.9,6.6,8.6c0-0.5,0.4-1,1-1c0.5,0,1,0.4,1,1
	C8.6,8.9,8.4,9.2,8.2,9.4z"/>
</svg>
