<?xml version="1.0" encoding="utf-8"?>
<!-- Generator: Adobe Illustrator 18.0.0, SVG Export Plug-In . SVG Version: 6.00 Build 0)  -->
<!DOCTYPE svg PUBLIC "-//W3C//DTD SVG 1.1//EN" "http://www.w3.org/Graphics/SVG/1.1/DTD/svg11.dtd">
<svg version="1.1" id="Layer_1" xmlns="http://www.w3.org/2000/svg" xmlns:xlink="http://www.w3.org/1999/xlink" x="0px" y="0px"
	 viewBox="0 0 595.3 841.9" enable-background="new 0 0 595.3 841.9" xml:space="preserve">
<g>
	<path fill="#FF921E" d="M0,131.5v579C0,755.3,36.7,792,81.5,792h12.2V49.9H81.5C36.7,49.9,0,86.6,0,131.5z"/>
	<path fill="#FF921E" d="M513.7,49.9h-371V792h375.1c44.8,0,81.5-36.7,81.5-81.5v-579C595.3,86.6,558.6,49.9,513.7,49.9z
		 M358.8,221.2c40.8,0,73.4,32.6,73.4,73.4s-32.6,73.4-73.4,73.4s-73.4-32.6-73.4-73.4S318,221.2,358.8,221.2z M485.2,563.6
		c0,4.1-4.1,8.2-12.2,8.2H248.7c-8.2,0-12.2-4.1-12.2-12.2v-73.4c0-48.9,40.8-93.8,93.8-93.8h65.2c48.9,0,93.8,40.8,93.8,93.8v77.5
		H485.2z"/>
</g>
</svg>
