<?xml version="1.0" encoding="utf-8"?>
<!-- Generator: Adobe Illustrator 18.0.0, SVG Export Plug-In . SVG Version: 6.00 Build 0)  -->
<!DOCTYPE svg PUBLIC "-//W3C//DTD SVG 1.1//EN" "http://www.w3.org/Graphics/SVG/1.1/DTD/svg11.dtd">
<svg version="1.1" id="Layer_1" xmlns="http://www.w3.org/2000/svg" xmlns:xlink="http://www.w3.org/1999/xlink" x="0px" y="0px"
	 viewBox="0 0 14.6 18.2" enable-background="new 0 0 14.6 18.2" xml:space="preserve">
<g>
	<path fill="#7B8095" d="M0,2v14.2c0,1.1,0.9,2,2,2h0.3V0H2C0.9,0,0,0.9,0,2z"/>
	<path fill="#7B8095" d="M12.6,0H3.5v18.2h9.2c1.1,0,2-0.9,2-2V2C14.6,0.9,13.7,0,12.6,0z M8.8,4.2c1,0,1.8,0.8,1.8,1.8
		c0,1-0.8,1.8-1.8,1.8C7.8,7.8,7,7,7,6C7,5,7.8,4.2,8.8,4.2z M11.9,12.6c0,0.1-0.1,0.2-0.3,0.2H6.1c-0.2,0-0.3-0.1-0.3-0.3v-1.8
		c0-1.2,1-2.3,2.3-2.3h1.6c1.2,0,2.3,1,2.3,2.3V12.6z"/>
</g>
</svg>
