<?xml version="1.0" encoding="utf-8"?>
<!-- Generator: Adobe Illustrator 18.0.0, SVG Export Plug-In . SVG Version: 6.00 Build 0)  -->
<!DOCTYPE svg PUBLIC "-//W3C//DTD SVG 1.1//EN" "http://www.w3.org/Graphics/SVG/1.1/DTD/svg11.dtd">
<svg version="1.1" id="Layer_1" xmlns="http://www.w3.org/2000/svg" xmlns:xlink="http://www.w3.org/1999/xlink" x="0px" y="0px"
	 viewBox="0 0 17 17" enable-background="new 0 0 17 17" xml:space="preserve">
<path fill="#7B8095" d="M13.5,9.9c-0.3,0-0.5,0-0.8,0.1L8.4,5.7c0.2-0.4,0.2-0.9,0.2-1.4C8.6,1.9,6.7,0,4.3,0c-0.5,0-1,0.1-1.4,0.2
	l2.3,2.3c0.1,0.1,0.1,0.2,0.1,0.3L4.8,4.6c0,0.1-0.1,0.2-0.2,0.2L2.8,5.3c-0.1,0-0.2,0-0.3-0.1L0.2,2.9C0.1,3.3,0,3.8,0,4.3
	c0,2.4,1.9,4.3,4.3,4.3c0.5,0,1-0.1,1.4-0.2l4.3,4.3c-0.1,0.3-0.1,0.5-0.1,0.8c0,1.9,1.6,3.5,3.5,3.5c1.9,0,3.5-1.6,3.5-3.5
	C17,11.5,15.4,9.9,13.5,9.9z M15.5,13L15,14.8c0,0.1-0.1,0.2-0.2,0.2L13,15.5c-0.1,0-0.2,0-0.3-0.1l-1.2-1.2
	c-0.1-0.1-0.1-0.2-0.1-0.3l0.5-1.7c0-0.1,0.1-0.2,0.2-0.2l1.7-0.5c0.1,0,0.2,0,0.3,0.1l1.2,1.2C15.5,12.8,15.5,12.9,15.5,13z"/>
</svg>
