<?xml version="1.0" encoding="utf-8"?>
<!-- Generator: Adobe Illustrator 18.0.0, SVG Export Plug-In . SVG Version: 6.00 Build 0)  -->
<!DOCTYPE svg PUBLIC "-//W3C//DTD SVG 1.1//EN" "http://www.w3.org/Graphics/SVG/1.1/DTD/svg11.dtd">
<svg version="1.1" id="Layer_1" xmlns="http://www.w3.org/2000/svg" xmlns:xlink="http://www.w3.org/1999/xlink" x="0px" y="0px"
	 viewBox="0 0 18.2 13.9" enable-background="new 0 0 18.2 13.9" xml:space="preserve">
<path fill="#7A8095" d="M17.3,2.6c-0.5,0-0.9,0.4-0.9,0.9c0,0.2,0.1,0.5,0.3,0.6l-3.5,3.1c-0.1,0.1-0.2,0-0.2,0L9.6,1.7
	C9.8,1.5,10,1.2,10,0.9C10,0.4,9.6,0,9.1,0C8.6,0,8.2,0.4,8.2,0.9c0,0.3,0.2,0.6,0.4,0.8L5.3,7.2c-0.1,0.1-0.2,0.1-0.2,0L1.6,4.1
	c0.1-0.2,0.2-0.4,0.2-0.6c0-0.5-0.4-0.9-0.9-0.9S0,3,0,3.5C0,4,0.4,4.4,0.9,4.4c0.1,0,0.1,0,0.2,0l1.6,9.3c0,0.1,0.1,0.2,0.2,0.2
	h12.5c0.1,0,0.2-0.1,0.2-0.2l1.6-9.3c0,0,0.1,0,0.1,0c0.5,0,0.9-0.4,0.9-0.9C18.2,3,17.8,2.6,17.3,2.6z"/>
</svg>
