<?xml version="1.0" encoding="utf-8"?>
<!-- Generator: Adobe Illustrator 18.0.0, SVG Export Plug-In . SVG Version: 6.00 Build 0)  -->
<!DOCTYPE svg PUBLIC "-//W3C//DTD SVG 1.1//EN" "http://www.w3.org/Graphics/SVG/1.1/DTD/svg11.dtd">
<svg version="1.1" id="Layer_1" xmlns="http://www.w3.org/2000/svg" xmlns:xlink="http://www.w3.org/1999/xlink" x="0px" y="0px"
	 viewBox="0 0 595.3 841.9" enable-background="new 0 0 595.3 841.9" xml:space="preserve">
<path fill="#FF921E" d="M565.8,278.7c-16.4,0-29.4,13.1-29.4,29.4c0,6.5,3.3,16.4,9.8,19.6L431.7,429.1c-3.3,3.3-6.5,0-6.5,0
	L314,249.2c6.5-6.5,13.1-16.4,13.1-26.2c0-16.4-13.1-29.4-29.4-29.4c-16.4,0-29.4,13.1-29.4,29.4c0,9.8,6.5,19.6,13.1,26.2
	L173.4,429.1c-3.3,3.3-6.5,3.3-6.5,0L52.3,327.7c3.3-6.5,6.5-13.1,6.5-19.6c0-16.4-13.1-29.4-29.4-29.4S0,291.7,0,308.1
	s13.1,29.4,29.4,29.4c3.3,0,3.3,0,6.5,0l52.3,304.2c0,3.3,3.3,6.5,6.5,6.5h408.8c3.3,0,6.5-3.3,6.5-6.5l52.3-304.2h3.3
	c16.4,0,29.4-13.1,29.4-29.4C595.3,291.7,582.2,278.7,565.8,278.7z"/>
</svg>
