<?xml version="1.0" encoding="utf-8"?>
<!-- Generator: Adobe Illustrator 18.0.0, SVG Export Plug-In . SVG Version: 6.00 Build 0)  -->
<!DOCTYPE svg PUBLIC "-//W3C//DTD SVG 1.1//EN" "http://www.w3.org/Graphics/SVG/1.1/DTD/svg11.dtd">
<svg version="1.1" id="Layer_1" xmlns="http://www.w3.org/2000/svg" xmlns:xlink="http://www.w3.org/1999/xlink" x="0px" y="0px"
	 viewBox="0 0 15.7 15.7" enable-background="new 0 0 15.7 15.7" xml:space="preserve">
<g>
	<path fill="#7B8095" d="M14.6,0H1.1C0.5,0,0,0.5,0,1.1v13.5c0,0.6,0.5,1.1,1.1,1.1h13.6c0.6,0,1.1-0.5,1.1-1.1V1.1
		C15.7,0.5,15.2,0,14.6,0z M2.7,2.8c0-0.1,0.1-0.2,0.2-0.2h2.4c0.1,0,0.2,0.1,0.2,0.2v2.4c0,0.1-0.1,0.2-0.2,0.2H2.8
		c-0.1,0-0.2-0.1-0.2-0.2V2.8z M2.7,6.6c0-0.1,0.1-0.2,0.2-0.2h2.4c0.1,0,0.2,0.1,0.2,0.2V9c0,0.1-0.1,0.2-0.2,0.2H2.8
		C2.8,9.2,2.7,9.1,2.7,9V6.6z M9.2,12.8C9.2,12.9,9.1,13,9,13H2.8c-0.1,0-0.2-0.1-0.2-0.2v-2.4c0-0.1,0.1-0.2,0.2-0.2H9
		c0.1,0,0.2,0.1,0.2,0.2V12.8z M9.2,9c0,0.1-0.1,0.2-0.2,0.2H6.7C6.6,9.2,6.5,9.1,6.5,9V6.6c0-0.1,0.1-0.2,0.2-0.2H9
		c0.1,0,0.2,0.1,0.2,0.2V9z M9.2,5.2c0,0.1-0.1,0.2-0.2,0.2H6.7c-0.1,0-0.2-0.1-0.2-0.2V2.8c0-0.1,0.1-0.2,0.2-0.2H9
		c0.1,0,0.2,0.1,0.2,0.2V5.2z M13,12.8c0,0.1-0.1,0.2-0.2,0.2h-2.4c-0.1,0-0.2-0.1-0.2-0.2v-2.4c0-0.1,0.1-0.2,0.2-0.2h2.4
		c0.1,0,0.2,0.1,0.2,0.2V12.8z M13,9c0,0.1-0.1,0.2-0.2,0.2h-2.4c-0.1,0-0.2-0.1-0.2-0.2V6.6c0-0.1,0.1-0.2,0.2-0.2h2.4
		c0.1,0,0.2,0.1,0.2,0.2V9z M13,5.2c0,0.1-0.1,0.2-0.2,0.2h-2.4c-0.1,0-0.2-0.1-0.2-0.2V2.8c0-0.1,0.1-0.2,0.2-0.2h2.4
		c0.1,0,0.2,0.1,0.2,0.2V5.2z"/>
</g>
</svg>
