<?xml version="1.0" encoding="utf-8"?>
<!-- Generator: Adobe Illustrator 18.0.0, SVG Export Plug-In . SVG Version: 6.00 Build 0)  -->
<!DOCTYPE svg PUBLIC "-//W3C//DTD SVG 1.1//EN" "http://www.w3.org/Graphics/SVG/1.1/DTD/svg11.dtd">
<svg version="1.1" id="Layer_1" xmlns="http://www.w3.org/2000/svg" xmlns:xlink="http://www.w3.org/1999/xlink" x="0px" y="0px"
	 viewBox="0 0 595.3 841.9" enable-background="new 0 0 595.3 841.9" xml:space="preserve">
<g>
	<path fill="#FF921E" d="M553.6,123.3H41.7C19,123.3,0,142.3,0,165v511.9c0,22.7,19,41.7,41.7,41.7h515.7c22.7,0,41.7-19,41.7-41.7
		V165C595.3,142.3,576.3,123.3,553.6,123.3z M102.4,229.5c0-3.8,3.8-7.6,7.6-7.6h91c3.8,0,7.6,3.8,7.6,7.6v91c0,3.8-3.8,7.6-7.6,7.6
		h-94.8c-3.8,0-7.6-3.8-7.6-7.6v-91H102.4z M102.4,373.6c0-3.8,3.8-7.6,7.6-7.6h91c3.8,0,7.6,3.8,7.6,7.6v91c0,3.8-3.8,7.6-7.6,7.6
		h-94.8c0,0-3.8-3.8-3.8-7.6V373.6z M348.8,608.6c0,3.8-3.8,7.6-7.6,7.6H106.2c-3.8,0-7.6-3.8-7.6-7.6v-91c0-3.8,3.8-7.6,7.6-7.6
		h235.1c3.8,0,7.6,3.8,7.6,7.6V608.6z M348.8,464.5c0,3.8-3.8,7.6-7.6,7.6H254c-3.8,0-7.6-3.8-7.6-7.6v-91c0-3.8,3.8-7.6,7.6-7.6
		h87.2c3.8,0,7.6,3.8,7.6,7.6V464.5z M348.8,320.5c0,3.8-3.8,7.6-7.6,7.6H254c-3.8,0-7.6-3.8-7.6-7.6v-91c0-3.8,3.8-7.6,7.6-7.6
		h87.2c3.8,0,7.6,3.8,7.6,7.6V320.5z M492.9,608.6c0,3.8-3.8,7.6-7.6,7.6h-91c-3.8,0-7.6-3.8-7.6-7.6v-91c0-3.8,3.8-7.6,7.6-7.6h91
		c3.8,0,7.6,3.8,7.6,7.6L492.9,608.6L492.9,608.6z M492.9,464.5c0,3.8-3.8,7.6-7.6,7.6h-91c-3.8,0-7.6-3.8-7.6-7.6v-91
		c0-3.8,3.8-7.6,7.6-7.6h91c3.8,0,7.6,3.8,7.6,7.6L492.9,464.5L492.9,464.5z M492.9,320.5c0,3.8-3.8,7.6-7.6,7.6h-91
		c-3.8,0-7.6-3.8-7.6-7.6v-91c0-3.8,3.8-7.6,7.6-7.6h91c3.8,0,7.6,3.8,7.6,7.6L492.9,320.5L492.9,320.5z"/>
</g>
</svg>
