<?xml version="1.0" encoding="utf-8"?>
<!-- Generator: Adobe Illustrator 18.0.0, SVG Export Plug-In . SVG Version: 6.00 Build 0)  -->
<!DOCTYPE svg PUBLIC "-//W3C//DTD SVG 1.1//EN" "http://www.w3.org/Graphics/SVG/1.1/DTD/svg11.dtd">
<svg version="1.1" id="Layer_1" xmlns="http://www.w3.org/2000/svg" xmlns:xlink="http://www.w3.org/1999/xlink" x="0px" y="0px"
	 viewBox="0 0 34.9 34.9" enable-background="new 0 0 34.9 34.9" xml:space="preserve">
<g>
	<path fill="#939393" d="M17.4,0C7.8,0,0,7.8,0,17.4C0,27,7.8,34.9,17.4,34.9S34.9,27,34.9,17.4C34.9,7.8,27,0,17.4,0 M17.4,33.6
		c-8.9,0-16.2-7.2-16.2-16.2S8.5,1.3,17.4,1.3s16.2,7.2,16.2,16.2S26.3,33.6,17.4,33.6"/>
	<path fill="#939393" d="M17.3,7.4c-1.9,0-3.6,1.4-3.6,3v3.7c0,1.2,0.8,2.2,1.9,2.7c0,0,0-5.9,0-5.9c0-0.9,0.7-1.6,1.6-1.6
		c0.9,0,1.6,0.7,1.6,1.6c0,0,0,6,0,6c1.2-0.5,2-1.5,2-2.7v-3.7C20.8,8.8,19.2,7.4,17.3,7.4"/>
	<path fill="#939393" d="M17.2,12.9c-0.5,0-1,0.4-1,1c0,0,0,7.2,0,7.8c0,0.6,0.4,1,1,1c0.5,0,1-0.4,1-1c0,0,0-7.8,0-7.8
		C18.2,13.4,17.8,12.9,17.2,12.9"/>
	<path fill="#939393" d="M18.9,18.7c0,0,0,5.9,0,5.9c0,0.9-0.7,1.6-1.6,1.6c-0.9,0-1.6-0.7-1.6-1.6c0,0,0-6,0-6
		c-1.2,0.5-2,1.5-2,2.7v3.7c0,1.7,1.7,3,3.6,3c1.9,0,3.6-1.4,3.6-3v-3.7C20.8,20.2,20,19.2,18.9,18.7"/>
</g>
</svg>
