<?xml version="1.0" encoding="utf-8"?>
<!-- Generator: Adobe Illustrator 18.0.0, SVG Export Plug-In . SVG Version: 6.00 Build 0)  -->
<!DOCTYPE svg PUBLIC "-//W3C//DTD SVG 1.1//EN" "http://www.w3.org/Graphics/SVG/1.1/DTD/svg11.dtd">
<svg version="1.1" id="Layer_1" xmlns="http://www.w3.org/2000/svg" xmlns:xlink="http://www.w3.org/1999/xlink" x="0px" y="0px"
	 viewBox="0 0 176.9 191.1" enable-background="new 0 0 176.9 191.1" xml:space="preserve">
<g>
	<g>
		<g>
			<path fill="#FFFFFF" d="M7.6,186.4h3.5v1.3c-0.6,0.9-1.9,2.2-4,2.2c-2.5,0-4.4-1.8-4.4-4.4c0-2.6,1.8-4.4,4.3-4.4
				c1.5,0,2.9,0.7,3.6,1.9l1.3-0.3c-1-1.7-2.7-2.8-4.9-2.8c-3.1,0-5.6,2.4-5.6,5.6c0,3.3,2.5,5.7,5.6,5.7c2.1,0,3.4-1.2,4-1.8h0
				c0,0,0,0.3,0,1.5h1v-5.5H7.6V186.4z"/>
			<path fill="#FFFFFF" d="M22.4,179.8c-3.1,0-5.6,2.4-5.6,5.6c0,3.3,2.5,5.6,5.6,5.6c3.1,0,5.6-2.4,5.6-5.6
				C28,182.2,25.5,179.8,22.4,179.8 M22.4,189.8c-2.5,0-4.3-1.8-4.3-4.4c0-2.6,1.9-4.4,4.3-4.4c2.4,0,4.3,1.8,4.3,4.4
				C26.7,188,24.8,189.8,22.4,189.8"/>
			<path fill="#FFFFFF" d="M37.3,187.7c-0.3,0.8-0.6,1.6-0.6,1.6h0c0,0-0.3-0.8-0.6-1.6l-3.3-7.7h-1.4l4.6,10.8h1.3l4.6-10.8h-1.4
				L37.3,187.7z"/>
			<polygon fill="#FFFFFF" points="47.7,185.8 52.4,185.8 52.4,184.7 47.7,184.7 47.7,181.2 53.9,181.2 53.9,180 46.6,180 
				46.6,190.8 53.9,190.8 53.9,189.6 47.7,189.6 			"/>
			<path fill="#FFFFFF" d="M66.6,183.4c0-2.1-1.5-3.4-4-3.4h-3.2v10.8h1.2v-4.1h2c0.2,0,0.4,0,0.6,0l2.4,4.1H67l-2.6-4.3
				C65.8,186,66.6,185,66.6,183.4 M62.7,185.8h-2.2v-4.7h2.2c1.7,0,2.6,0.9,2.6,2.3C65.3,184.8,64.5,185.8,62.7,185.8"/>
			<path fill="#FFFFFF" d="M79.8,185.7c0,1.5,0.1,3,0.1,3h0c0,0-0.8-1.2-1.6-2.3l-4.8-6.5h-1.2v10.8h1.5v-5.6c0-1.7-0.2-3.2-0.2-3.2
				h0c0,0,0.7,1,1.6,2.3l4.8,6.5h1.3V180h-1.5V185.7z"/>
			<path fill="#FFFFFF" d="M90.4,180l-4.7,10.8h1.4l1.2-2.6h5.4l1.2,2.6h1.4L91.6,180H90.4z M88.8,187l1.7-4.1
				c0.2-0.6,0.5-1.4,0.5-1.4h0c0,0,0.3,0.9,0.5,1.4l1.7,4.1H88.8z"/>
			<path fill="#FFFFFF" d="M108.6,185.7c0,1.5,0,3,0,3h0c0,0-0.8-1.2-1.6-2.3l-4.8-6.5H101v10.8h1.2v-5.6c0-1.7,0-3.2,0-3.2h0
				c0,0,0.7,1,1.6,2.3l4.8,6.5h1.1V180h-1.2V185.7z"/>
			<path fill="#FFFFFF" d="M120.5,189.8c-2.4,0-4.3-1.8-4.3-4.4c0-2.6,1.8-4.4,4.3-4.4c1.5,0,2.9,0.7,3.6,1.9l1.3-0.3
				c-1-1.7-2.8-2.8-4.9-2.8c-3.1,0-5.6,2.4-5.6,5.6c0,3.3,2.5,5.6,5.6,5.6c2.3,0,4.2-1.2,5.1-3.2l-1.3-0.3
				C123.6,188.9,122.2,189.8,120.5,189.8"/>
			<polygon fill="#FFFFFF" points="131.6,185.8 136.5,185.8 136.5,184.7 131.6,184.7 131.6,181.2 137.7,181.2 137.7,180 130.4,180 
				130.4,190.8 137.7,190.8 137.7,189.6 131.6,189.6 			"/>
			<path fill="#FFFFFF" d="M157,183.2c0-1.9-1.5-3.4-3.7-3.4c-1.9,0-3.4,1-3.9,2.9l1.2,0.3c0.3-1.2,1.3-2.1,2.7-2.1
				c1.4,0,2.4,1,2.4,2.3c0,1-0.6,1.9-1.4,2.5c-1.6,1.4-3.2,2.8-5,4.1v0.9h7.6v-1.2h-3.7c-1.2,0-2,0.1-2,0.1h0c0,0,1.7-1.2,3-2.3
				C155.4,186.5,157,185.4,157,183.2"/>
			<path fill="#FFFFFF" d="M162.4,189.5c-0.4,0-0.8,0.3-0.8,0.8c0,0.4,0.3,0.8,0.8,0.8c0.4,0,0.8-0.3,0.8-0.8
				C163.1,189.9,162.8,189.5,162.4,189.5"/>
			<path fill="#FFFFFF" d="M172.1,179.8c-3.1,0-4.9,2.6-4.9,5.6c0,3,1.8,5.6,4.9,5.6c3.1,0,4.9-2.6,4.9-5.6
				C176.9,182.4,175.1,179.8,172.1,179.8 M172.1,189.8c-2.4,0-3.6-2-3.6-4.4c0-2.3,1.2-4.4,3.6-4.4c2.4,0,3.6,2,3.6,4.4
				C175.6,187.8,174.4,189.8,172.1,189.8"/>
			<path fill="#FFFFFF" d="M8.8,156.1c3.1,0,5.2,1.8,5.2,4.4c0,1.8-1.5,3.4-3,3.7v0c1.8,0.2,4.1,2,4.1,4.6c0,3.1-2.2,5.3-6,5.3H2
				v-18H8.8z M8.3,163.6c2.1,0,3.5-1.3,3.5-2.9c0-1.7-1.4-2.8-3.5-2.8H4.1v5.7H8.3z M9,172.4c2.2,0,3.9-1.3,3.9-3.5
				c0-2.1-1.8-3.5-4-3.5H4.1v7H9z"/>
			<rect x="23.8" y="156.1" fill="#FFFFFF" width="2.1" height="18"/>
			<polygon fill="#FFFFFF" points="48.2,156.1 48.2,158.1 42.1,158.1 42.1,174.2 40.1,174.2 40.1,158.1 34,158.1 34,156.1 			"/>
			<path fill="#FFFFFF" d="M71.1,156.1v18h-2l-8-10.8c-1.5-2.1-2.7-3.8-2.7-3.8h0c0,0,0.1,2.2,0.1,5.1v9.5h-2.1v-18h2l8,10.8
				c1.4,1.8,2.7,3.7,2.7,3.7h0c0,0-0.1-2.4-0.1-5v-9.5H71.1z"/>
			<path fill="#FFFFFF" d="M92.2,169.5h-9l-2,4.7h-2.3l7.8-18h1.9l7.8,18h-2.3L92.2,169.5z M91.4,167.6l-2.9-6.7
				c-0.4-0.9-0.8-2.2-0.8-2.2h0c0,0-0.5,1.3-0.9,2.2l-2.9,6.7H91.4z"/>
			<polygon fill="#FFFFFF" points="114.5,156.1 114.5,158.1 108.5,158.1 108.5,174.2 106.4,174.2 106.4,158.1 100.4,158.1 
				100.4,156.1 			"/>
			<rect x="122.7" y="156.1" fill="#FFFFFF" width="2.1" height="18"/>
			<path fill="#FFFFFF" d="M142.7,155.8c5.2,0,9.4,3.9,9.4,9.4c0,5.4-4.2,9.4-9.4,9.4c-5.2,0-9.4-3.9-9.4-9.4
				C133.3,159.7,137.5,155.8,142.7,155.8 M142.7,172.5c4.1,0,7.2-3,7.2-7.3c0-4.4-3.1-7.3-7.2-7.3c-4.1,0-7.2,2.9-7.2,7.3
				C135.5,169.5,138.6,172.5,142.7,172.5"/>
			<path fill="#FFFFFF" d="M175.3,156.1v18h-2l-8-10.8c-1.5-2.1-2.7-3.8-2.7-3.8h0c0,0,0.1,2.2,0.1,5.1v9.5h-2.1v-18h2l8,10.8
				c1.4,1.8,2.7,3.7,2.7,3.7h0c0,0-0.1-2.4-0.1-5v-9.5H175.3z"/>
			<rect x="0" y="168.3" fill="#FFFFFF" width="5.8" height="1.5"/>
		</g>
	</g>
	<g>
		<path fill="#FFFFFF" d="M88.3,33.8c-19.4,0-35.2,15.8-35.2,35.2c0,19.4,15.8,35.2,35.2,35.2s35.2-15.8,35.2-35.2
			C123.4,49.6,107.7,33.8,88.3,33.8 M88.3,101.6c-18,0-32.6-14.6-32.6-32.6c0-18,14.6-32.6,32.6-32.6c18,0,32.6,14.6,32.6,32.6
			C120.9,86.9,106.2,101.6,88.3,101.6"/>
		<path fill="#FFFFFF" d="M39.3,114.9L22.2,132c-0.1,0.1-0.1,0.2-0.1,0.3c0,0.1,0.1,0.3,0.1,0.3c0.1,0.1,0.2,0.1,0.3,0.1
			c0.1,0,0.3-0.1,0.3-0.1l17.1-17.1c0.2-0.2,0.2-0.5,0-0.7C39.8,114.8,39.4,114.8,39.3,114.9"/>
		<path fill="#FFFFFF" d="M154.7,0.1c-0.2-0.2-0.5-0.2-0.7,0l-15.3,15.3c-0.1,0.1-0.1,0.2-0.1,0.3c0,0.1,0.1,0.3,0.1,0.3
			c0.1,0.1,0.2,0.1,0.3,0.1c0.1,0,0.2-0.1,0.3-0.1l15.3-15.3c0.1-0.1,0.1-0.2,0.1-0.3C154.9,0.3,154.8,0.2,154.7,0.1"/>
		<path fill="#FFFFFF" d="M78.6,13.4l-0.3-2c-0.7,0.1-1.3,0.2-2,0.4l0.4,1.9C77.4,13.6,78,13.5,78.6,13.4"/>
		<path fill="#FFFFFF" d="M74.8,14.2l-0.5-1.9c-0.7,0.2-1.3,0.3-1.9,0.5l0.5,1.9C73.6,14.5,74.2,14.3,74.8,14.2"/>
		<path fill="#FFFFFF" d="M86.4,12.6l-0.1-2c-0.7,0-1.3,0.1-2,0.1l0.1,2C85.1,12.7,85.7,12.6,86.4,12.6"/>
		<path fill="#FFFFFF" d="M82.5,12.9l-0.2-2c-0.7,0.1-1.3,0.1-2,0.2l0.3,2C81.2,13,81.9,12.9,82.5,12.9"/>
		<path fill="#FFFFFF" d="M71.1,15.2l-0.6-1.9c-0.6,0.2-1.3,0.4-1.9,0.6l0.7,1.9C69.8,15.6,70.5,15.4,71.1,15.2"/>
		<path fill="#FFFFFF" d="M67.4,16.5l-0.7-1.8c-0.6,0.2-1.2,0.5-1.9,0.8l0.8,1.8C66.2,17,66.8,16.8,67.4,16.5"/>
		<path fill="#FFFFFF" d="M136,38.3l1.7-1.1c-0.4-0.6-0.7-1.1-1.1-1.7l-1.6,1.1C135.3,37.2,135.7,37.7,136,38.3"/>
		<path fill="#FFFFFF" d="M144.9,61.7c0.1,0.6,0.2,1.3,0.2,1.9l2-0.2c-0.1-0.7-0.2-1.3-0.2-2L144.9,61.7z"/>
		<path fill="#FFFFFF" d="M94.4,10.9c-0.7-0.1-1.3-0.1-2-0.2l-0.1,2c0.6,0,1.3,0.1,1.9,0.2L94.4,10.9z"/>
		<path fill="#FFFFFF" d="M63.9,18.1L63,16.3c-0.6,0.3-1.2,0.6-1.8,0.9l0.9,1.8C62.7,18.7,63.3,18.4,63.9,18.1"/>
		<path fill="#FFFFFF" d="M98.3,11.4c-0.7-0.1-1.3-0.2-2-0.3l-0.3,2c0.6,0.1,1.3,0.2,1.9,0.3L98.3,11.4z"/>
		<path fill="#FFFFFF" d="M90.3,12.6l0.1-2c-0.6,0-1.3,0-1.9,0h-0.3v2h0.3C89,12.6,89.6,12.6,90.3,12.6"/>
		<path fill="#FFFFFF" d="M144.2,57.9c0.1,0.6,0.3,1.3,0.4,1.9l2-0.3c-0.1-0.7-0.2-1.3-0.4-2L144.2,57.9z"/>
		<path fill="#FFFFFF" d="M57.1,21.9L56,20.3c-0.6,0.4-1.1,0.8-1.7,1.1l1.1,1.6C56,22.6,56.6,22.3,57.1,21.9"/>
		<path fill="#FFFFFF" d="M45.4,32.1l-1.5-1.3c-0.4,0.5-0.9,1-1.3,1.5l1.5,1.3C44.6,33.1,45,32.6,45.4,32.1"/>
		<path fill="#FFFFFF" d="M31.9,77.4c-0.1-0.6-0.2-1.3-0.2-1.9l-2,0.2c0.1,0.7,0.1,1.3,0.2,2L31.9,77.4z"/>
		<path fill="#FFFFFF" d="M43,35.1l-1.6-1.2c-0.4,0.5-0.8,1.1-1.2,1.6l1.6,1.1C42.2,36.2,42.6,35.7,43,35.1"/>
		<path fill="#FFFFFF" d="M40.7,38.3L39,37.2c-0.4,0.6-0.7,1.1-1.1,1.7l1.7,1C40,39.4,40.3,38.9,40.7,38.3"/>
		<path fill="#FFFFFF" d="M32.6,81.2c-0.1-0.6-0.3-1.3-0.4-1.9l-2,0.3c0.1,0.7,0.2,1.3,0.4,2L32.6,81.2z"/>
		<path fill="#FFFFFF" d="M29.4,71.6c0,0.7,0.1,1.4,0.1,2l2-0.1c0-0.6-0.1-1.3-0.1-1.9L29.4,71.6z"/>
		<path fill="#FFFFFF" d="M102.3,12.2c-0.7-0.2-1.3-0.3-2-0.4l-0.4,1.9c0.6,0.1,1.3,0.3,1.9,0.4L102.3,12.2z"/>
		<path fill="#FFFFFF" d="M48.1,29.3l-1.4-1.4c-0.5,0.5-0.9,1-1.4,1.4l1.5,1.4C47.2,30.2,47.6,29.7,48.1,29.3"/>
		<path fill="#FFFFFF" d="M60.4,19.9l-1-1.7c-0.6,0.3-1.2,0.7-1.7,1l1,1.7C59.3,20.5,59.9,20.2,60.4,19.9"/>
		<path fill="#FFFFFF" d="M33.5,85c-0.2-0.6-0.3-1.3-0.5-1.9l-1.9,0.5c0.2,0.6,0.3,1.3,0.5,1.9L33.5,85z"/>
		<path fill="#FFFFFF" d="M53.9,24.2l-1.2-1.6c-0.5,0.4-1.1,0.8-1.6,1.2l1.3,1.5C52.9,25,53.4,24.6,53.9,24.2"/>
		<path fill="#FFFFFF" d="M50.9,26.6l-1.3-1.5c-0.5,0.4-1,0.9-1.5,1.4l1.4,1.4C49.9,27.5,50.4,27,50.9,26.6"/>
		<path fill="#FFFFFF" d="M94.5,128.3c0.7-0.1,1.3-0.1,2-0.2l-0.3-2c-0.6,0.1-1.3,0.2-1.9,0.2L94.5,128.3z"/>
		<path fill="#FFFFFF" d="M86.4,128.5c0.7,0,1.3,0.1,1.9,0.1h0.1v-2c-0.7,0-1.3,0-2-0.1L86.4,128.5z"/>
		<path fill="#FFFFFF" d="M137.1,39.9c0.3,0.6,0.7,1.1,1,1.7l1.7-1c-0.3-0.6-0.7-1.2-1-1.7L137.1,39.9z"/>
		<path fill="#FFFFFF" d="M124,22.5c-0.5-0.4-1.1-0.8-1.6-1.2l-1.1,1.6c0.5,0.4,1.1,0.8,1.6,1.2L124,22.5z"/>
		<path fill="#FFFFFF" d="M98.4,127.7c0.7-0.1,1.3-0.2,2-0.4l-0.4-1.9c-0.6,0.1-1.3,0.3-1.9,0.4L98.4,127.7z"/>
		<path fill="#FFFFFF" d="M139,43.3c0.3,0.6,0.6,1.2,0.9,1.7l1.8-0.9c-0.3-0.6-0.6-1.2-0.9-1.8L139,43.3z"/>
		<path fill="#FFFFFF" d="M84.4,128.4l0.1-2c-0.6,0-1.3-0.1-1.9-0.2l-0.2,2C83.1,128.3,83.7,128.4,84.4,128.4"/>
		<path fill="#FFFFFF" d="M80.4,128l0.3-2c-0.6-0.1-1.3-0.2-1.9-0.3l-0.3,2C79.1,127.8,79.7,127.9,80.4,128"/>
		<path fill="#FFFFFF" d="M119.7,117.3l1.1,1.7c0.6-0.4,1.1-0.7,1.7-1.1l-1.1-1.6C120.7,116.5,120.2,116.9,119.7,117.3"/>
		<path fill="#FFFFFF" d="M103.8,124.5c-0.6,0.2-1.3,0.3-1.9,0.5l0.5,1.9c0.7-0.2,1.3-0.3,1.9-0.5L103.8,124.5z"/>
		<path fill="#FFFFFF" d="M114.6,120.2c-0.6,0.3-1.2,0.6-1.7,0.9l0.9,1.8c0.6-0.3,1.2-0.6,1.8-0.9L114.6,120.2z"/>
		<path fill="#FFFFFF" d="M131.3,32.1l1.5-1.3c-0.4-0.5-0.9-1-1.4-1.5l-1.4,1.4C130.5,31.1,130.9,31.6,131.3,32.1"/>
		<path fill="#FFFFFF" d="M106.3,125.8c0.6-0.2,1.3-0.4,1.9-0.6l-0.7-1.9c-0.6,0.2-1.2,0.4-1.8,0.6L106.3,125.8z"/>
		<path fill="#FFFFFF" d="M110.1,124.5c0.6-0.2,1.2-0.5,1.9-0.8l-0.8-1.8c-0.6,0.3-1.2,0.5-1.8,0.7L110.1,124.5z"/>
		<path fill="#FFFFFF" d="M113.7,16.3c-0.6-0.3-1.2-0.6-1.8-0.8l-0.8,1.8c0.6,0.3,1.2,0.5,1.8,0.8L113.7,16.3z"/>
		<path fill="#FFFFFF" d="M106.2,13.3c-0.6-0.2-1.3-0.4-1.9-0.6l-0.5,1.9c0.6,0.2,1.3,0.4,1.9,0.6L106.2,13.3z"/>
		<path fill="#FFFFFF" d="M117.3,18.1c-0.6-0.3-1.2-0.7-1.8-1l-0.9,1.8c0.6,0.3,1.2,0.6,1.7,0.9L117.3,18.1z"/>
		<path fill="#FFFFFF" d="M120.7,20.2c-0.6-0.4-1.1-0.7-1.7-1.1l-1,1.7c0.6,0.3,1.1,0.7,1.6,1L120.7,20.2z"/>
		<path fill="#FFFFFF" d="M142.1,50.4c0.2,0.6,0.4,1.2,0.6,1.8l1.9-0.6c-0.2-0.6-0.4-1.3-0.6-1.9L142.1,50.4z"/>
		<path fill="#FFFFFF" d="M143.3,54.1c0.2,0.6,0.3,1.3,0.5,1.9l1.9-0.5c-0.2-0.7-0.3-1.3-0.5-1.9L143.3,54.1z"/>
		<path fill="#FFFFFF" d="M110,14.7c-0.6-0.2-1.3-0.5-1.9-0.7l-0.7,1.9c0.6,0.2,1.2,0.4,1.8,0.7L110,14.7z"/>
		<path fill="#FFFFFF" d="M76.4,127.4l0.4-1.9c-0.6-0.1-1.3-0.3-1.9-0.4l-0.5,1.9C75.1,127.1,75.8,127.2,76.4,127.4"/>
		<path fill="#FFFFFF" d="M140.7,46.8c0.3,0.6,0.5,1.2,0.7,1.8l1.8-0.7c-0.2-0.6-0.5-1.2-0.8-1.9L140.7,46.8z"/>
		<path fill="#FFFFFF" d="M71.2,123.9l-0.6,1.9c0.6,0.2,1.3,0.4,1.9,0.6l0.5-1.9C72.4,124.3,71.8,124.1,71.2,123.9"/>
		<path fill="#FFFFFF" d="M69.3,123.3c-0.6-0.2-1.2-0.4-1.8-0.7l-0.7,1.8c0.6,0.2,1.3,0.5,1.9,0.7L69.3,123.3z"/>
		<path fill="#FFFFFF" d="M58.8,118.3c-0.6-0.3-1.1-0.7-1.6-1l-1.1,1.7c0.6,0.4,1.1,0.7,1.7,1.1L58.8,118.3z"/>
		<path fill="#FFFFFF" d="M60.5,119.3l-1,1.7c0.6,0.3,1.2,0.7,1.8,1l0.9-1.8C61.6,119.9,61,119.6,60.5,119.3"/>
		<path fill="#FFFFFF" d="M133.8,35.1l1.6-1.2c-0.4-0.5-0.8-1.1-1.2-1.6l-1.5,1.3C133,34.1,133.4,34.6,133.8,35.1"/>
		<path fill="#FFFFFF" d="M136.1,100.9l1.7,1.1c0.4-0.6,0.7-1.1,1.1-1.7l-1.7-1C136.8,99.8,136.4,100.3,136.1,100.9"/>
		<path fill="#FFFFFF" d="M128.6,26.4l-1.4,1.5c0.5,0.4,0.9,0.9,1.4,1.4l1.4-1.4C129.6,27.3,129.1,26.9,128.6,26.4"/>
		<path fill="#FFFFFF" d="M34.7,88.7c-0.2-0.6-0.4-1.2-0.6-1.8l-1.9,0.6c0.2,0.6,0.4,1.3,0.6,1.9L34.7,88.7z"/>
		<path fill="#FFFFFF" d="M131.4,107.1l1.5,1.3c0.4-0.5,0.9-1,1.3-1.5l-1.5-1.3C132.2,106.1,131.8,106.6,131.4,107.1"/>
		<path fill="#FFFFFF" d="M125.9,112.6l1.3,1.5c0.5-0.4,1-0.9,1.5-1.3l-1.4-1.4C126.8,111.7,126.3,112.1,125.9,112.6"/>
		<path fill="#FFFFFF" d="M63.9,121.1l-0.9,1.8c0.6,0.3,1.2,0.6,1.8,0.8l0.8-1.8C65.1,121.6,64.5,121.4,63.9,121.1"/>
		<path fill="#FFFFFF" d="M90.4,126.6l0.1,2c0.7,0,1.3-0.1,2-0.1l-0.1-2C91.7,126.5,91,126.5,90.4,126.6"/>
		<path fill="#FFFFFF" d="M125.6,23.8l-1.3,1.5c0.5,0.4,1,0.8,1.5,1.3l1.3-1.5C126.6,24.6,126.1,24.2,125.6,23.8"/>
		<path fill="#FFFFFF" d="M117.3,121c0.6-0.3,1.2-0.7,1.7-1l-1-1.7c-0.6,0.3-1.1,0.7-1.7,1L117.3,121z"/>
		<path fill="#FFFFFF" d="M122.8,115l1.2,1.6c0.5-0.4,1.1-0.8,1.6-1.2l-1.3-1.5C123.9,114.2,123.3,114.6,122.8,115"/>
		<path fill="#FFFFFF" d="M128.7,109.9l1.4,1.4c0.5-0.5,0.9-1,1.4-1.4l-1.4-1.4C129.6,109,129.2,109.4,128.7,109.9"/>
		<path fill="#FFFFFF" d="M145.1,75.4l2,0.2c0.1-0.7,0.1-1.3,0.2-2l-2-0.1C145.2,74.1,145.2,74.8,145.1,75.4"/>
		<path fill="#FFFFFF" d="M144.6,79.3l2,0.3c0.1-0.7,0.2-1.3,0.3-2l-2-0.3C144.8,78,144.7,78.6,144.6,79.3"/>
		<path fill="#FFFFFF" d="M138.1,97.5l1.7,1c0.3-0.6,0.7-1.2,1-1.8l-1.8-0.9C138.7,96.4,138.4,97,138.1,97.5"/>
		<path fill="#FFFFFF" d="M147.4,67.5c0-0.7-0.1-1.3-0.1-2l-2,0.1c0,0.6,0.1,1.3,0.1,1.9L147.4,67.5z"/>
		<path fill="#FFFFFF" d="M147.4,69.3h-2v0.3c0,0.6,0,1.3,0,1.9l2,0.1c0-0.7,0-1.3,0-2V69.3z"/>
		<path fill="#FFFFFF" d="M139.9,94.1l1.8,0.9c0.3-0.6,0.6-1.2,0.8-1.8l-1.8-0.8C140.4,92.9,140.2,93.5,139.9,94.1"/>
		<path fill="#FFFFFF" d="M141.5,90.5l1.8,0.7c0.2-0.6,0.5-1.3,0.7-1.9l-1.9-0.7C141.9,89.3,141.7,89.9,141.5,90.5"/>
		<path fill="#FFFFFF" d="M143.8,83.1l1.9,0.5c0.2-0.7,0.3-1.3,0.4-2l-1.9-0.4C144.1,81.8,144,82.4,143.8,83.1"/>
		<path fill="#FFFFFF" d="M142.8,86.8l1.9,0.6c0.2-0.6,0.4-1.3,0.6-1.9l-1.9-0.5C143.1,85.6,143,86.2,142.8,86.8"/>
		<path fill="#FFFFFF" d="M133.8,104l1.6,1.2c0.4-0.5,0.8-1.1,1.2-1.6l-1.6-1.1C134.6,103,134.2,103.5,133.8,104"/>
		<path fill="#FFFFFF" d="M31.7,63.8l-2-0.2c-0.1,0.7-0.1,1.3-0.2,2l2,0.1C31.6,65.1,31.6,64.4,31.7,63.8"/>
		<path fill="#FFFFFF" d="M31.4,69.6c0-0.6,0-1.3,0-1.9l-2-0.1c0,0.6,0,1.3,0,2v0.1h2V69.6z"/>
		<path fill="#FFFFFF" d="M33,56.1l-1.9-0.5c-0.2,0.7-0.3,1.3-0.4,2l1.9,0.4C32.7,57.4,32.8,56.8,33,56.1"/>
		<path fill="#FFFFFF" d="M40.7,100.9l-1.7,1.1c0.4,0.6,0.7,1.1,1.1,1.7l1.6-1.1C41.4,101.9,41.1,101.4,40.7,100.9"/>
		<path fill="#FFFFFF" d="M32.2,59.9l-2-0.3c-0.1,0.7-0.2,1.3-0.3,2l2,0.3C32,61.2,32.1,60.6,32.2,59.9"/>
		<path fill="#FFFFFF" d="M49.6,114c0.5,0.4,1,0.9,1.5,1.3l1.3-1.5c-0.5-0.4-1-0.8-1.5-1.3L49.6,114z"/>
		<path fill="#FFFFFF" d="M46.7,111.3c0.5,0.5,1,0.9,1.4,1.4l1.4-1.4c-0.5-0.4-0.9-0.9-1.4-1.4L46.7,111.3z"/>
		<path fill="#FFFFFF" d="M45.4,107l-1.5,1.3c0.4,0.5,0.9,1,1.3,1.5l1.4-1.4C46.3,108,45.9,107.5,45.4,107"/>
		<path fill="#FFFFFF" d="M36.1,92.3c-0.3-0.6-0.5-1.2-0.7-1.8l-1.8,0.7c0.2,0.6,0.5,1.2,0.8,1.9L36.1,92.3z"/>
		<path fill="#FFFFFF" d="M37.8,95.8c-0.3-0.6-0.6-1.2-0.9-1.7l-1.8,0.9c0.3,0.6,0.6,1.2,0.9,1.8L37.8,95.8z"/>
		<path fill="#FFFFFF" d="M39.7,99.2c-0.3-0.6-0.7-1.1-1-1.7l-1.7,1c0.3,0.6,0.7,1.2,1,1.7L39.7,99.2z"/>
		<path fill="#FFFFFF" d="M52.8,116.6c0.5,0.4,1.1,0.8,1.6,1.2l1.1-1.6c-0.5-0.4-1.1-0.8-1.6-1.2L52.8,116.6z"/>
		<path fill="#FFFFFF" d="M34,52.4l-1.9-0.6c-0.2,0.6-0.4,1.3-0.6,1.9l1.9,0.5C33.6,53.6,33.8,53,34,52.4"/>
		<path fill="#FFFFFF" d="M35.3,48.7L33.5,48c-0.2,0.6-0.5,1.3-0.7,1.9l1.9,0.7C34.9,49.9,35.1,49.3,35.3,48.7"/>
		<path fill="#FFFFFF" d="M38.7,41.7l-1.7-1c-0.3,0.6-0.7,1.2-1,1.8l1.8,0.9C38.1,42.8,38.4,42.2,38.7,41.7"/>
		<path fill="#FFFFFF" d="M36.9,45.1l-1.8-0.9c-0.3,0.6-0.6,1.2-0.8,1.8l1.8,0.8C36.3,46.3,36.6,45.7,36.9,45.1"/>
		<path fill="#FFFFFF" d="M43,104l-1.6,1.2c0.4,0.5,0.8,1.1,1.2,1.6l1.5-1.3C43.8,105.1,43.4,104.5,43,104"/>
		<path fill="#FFFFFF" d="M87.9,48.8c-3.8,0-7.2,2.7-7.2,6.1v7.5c0,2.4,1.7,4.4,3.9,5.4c0,0,0-11.9,0-12c0-1.8,1.4-3.2,3.2-3.2
			s3.2,1.4,3.2,3.2c0,0.1,0,12,0,12c2.3-1,4-3.1,4-5.5v-7.5C95.1,51.5,91.8,48.8,87.9,48.8"/>
		<path fill="#FFFFFF" d="M87.9,59.9c-1.1,0-1.9,0.9-1.9,2c0,0,0,14.6,0,15.7c0,1.1,0.9,2,2,2c1.1,0,1.9-0.9,1.9-2
			c0,0,0-15.7,0-15.7C89.8,60.7,89,59.9,87.9,59.9"/>
		<path fill="#FFFFFF" d="M91.2,71.5c0,0,0,11.9,0,12c0,1.8-1.4,3.2-3.2,3.2s-3.2-1.4-3.2-3.2c0-0.1,0-12,0-12c-2.3,1-4,3.1-4,5.5
			v7.5c0,3.4,3.4,6.1,7.2,6.1c3.8,0,7.2-2.7,7.2-6.1V77C95.1,74.6,93.4,72.6,91.2,71.5"/>
	</g>
</g>
</svg>
