<?xml version="1.0" encoding="utf-8"?>
<!-- Generator: Adobe Illustrator 18.0.0, SVG Export Plug-In . SVG Version: 6.00 Build 0)  -->
<!DOCTYPE svg PUBLIC "-//W3C//DTD SVG 1.1//EN" "http://www.w3.org/Graphics/SVG/1.1/DTD/svg11.dtd">
<svg version="1.1" id="Layer_1" xmlns="http://www.w3.org/2000/svg" xmlns:xlink="http://www.w3.org/1999/xlink" x="0px" y="0px"
	 viewBox="0 0 14.8 14.8" enable-background="new 0 0 14.8 14.8" xml:space="preserve">
<path fill="#4E4E4E" d="M7.4,0C3.3,0,0,3.3,0,7.4c0,4.1,3.3,7.4,7.4,7.4c4.1,0,7.4-3.3,7.4-7.4C14.8,3.3,11.5,0,7.4,0z M12.7,3.2
	l0.2-0.1L13,3.3c0.8,1.1,1.3,2.3,1.4,3.7l0,0.2h-3.1l0-0.2c0-0.9-0.2-1.8-0.5-2.7l-0.1-0.2L10.9,4C11.5,3.8,12.1,3.5,12.7,3.2z
	 M9.3,0.8c1.1,0.3,2.2,0.9,3,1.8l0.2,0.2l-0.2,0.1c-0.5,0.3-1,0.5-1.6,0.7l-0.2,0.1l-0.1-0.2c-0.4-0.8-0.8-1.6-1.4-2.4L8.7,0.6
	L9.3,0.8z M7.7,0.5c0.1,0,0.2,0,0.3,0L8,0.6C8.4,1,9.3,2,10,3.6l0.1,0.2L9.9,3.8C9.2,4,8.6,4.1,7.9,4.1l-0.2,0V0.5z M7.7,4.6l0.2,0
	c0.7,0,1.5-0.1,2.2-0.3l0.2,0l0.1,0.2c0.3,0.8,0.4,1.7,0.5,2.5l0,0.2H7.7V4.6z M7.7,7.7h3.1l0,0.2c-0.1,0.8-0.3,1.7-0.6,2.5
	l-0.1,0.2l-0.2,0c-0.7-0.2-1.4-0.3-2.1-0.3l-0.2,0V7.7z M7.9,10.7c0.6,0,1.2,0.1,1.8,0.2L10,11l-0.1,0.2c-0.4,0.9-1,1.9-1.8,2.9
	l-0.2,0.2c-0.1,0-0.1,0-0.2,0v-3.6L7.9,10.7z M6.8,14.1c-0.7-0.9-1.4-1.9-1.8-2.8l-0.1-0.2L5.1,11c0.6-0.1,1.2-0.2,1.8-0.3l0.2,0
	v3.6c-0.1,0-0.1,0-0.2,0L6.8,14.1z M7.2,7.2H4L4,7c0-0.9,0.2-1.7,0.5-2.6l0.1-0.2l0.2,0.1C5.5,4.4,6.2,4.6,7,4.6l0.2,0V7.2z
	 M7.2,7.7v2.6l-0.2,0c-0.7,0-1.4,0.1-2.1,0.3l-0.2,0l-0.1-0.2C4.3,9.6,4.1,8.8,4.1,7.9l0-0.2H7.2z M6.9,0.5c0.1,0,0.2,0,0.3,0v3.6
	L7,4.1C6.3,4.1,5.6,4,5,3.8L4.8,3.7l0.1-0.2C5.5,2,6.5,1,6.8,0.6L6.9,0.5z M2.5,2.5c0.8-0.8,1.9-1.4,3-1.8l0.6-0.2L5.8,1.1
	c-0.6,0.7-1,1.5-1.4,2.3L4.3,3.6L4.1,3.5c-0.5-0.2-1-0.4-1.6-0.7L2.3,2.7L2.5,2.5z M0.5,7c0.1-1.3,0.6-2.6,1.4-3.7L2,3.1l0.2,0.1
	C2.7,3.5,3.3,3.8,3.9,4l0.2,0.1L4.1,4.3C3.8,5.1,3.6,6.1,3.6,7l0,0.2H0.5L0.5,7z M2.2,11.7L2,11.7l-0.1-0.1
	c-0.8-1.1-1.3-2.3-1.4-3.7l0-0.2h3.1l0,0.2c0.1,0.9,0.3,1.8,0.6,2.7l0.1,0.2L4,10.8C3.4,11,2.8,11.3,2.2,11.7z M5.7,14.1
	c-1.2-0.3-2.3-0.9-3.2-1.8l-0.2-0.2L2.6,12c0.5-0.3,1.1-0.5,1.7-0.7l0.2-0.1l0.1,0.2c0.4,0.8,0.8,1.6,1.4,2.4l0.3,0.5L5.7,14.1z
	 M12.3,12.3c-0.9,0.9-2,1.5-3.2,1.8l-0.6,0.1l0.3-0.5c0.6-0.8,1.1-1.6,1.4-2.4l0.1-0.2l0.2,0.1c0.6,0.2,1.1,0.4,1.7,0.7l0.2,0.1
	L12.3,12.3z M14.3,7.9c-0.1,1.3-0.6,2.6-1.4,3.7l-0.1,0.1l-0.2-0.1c-0.6-0.3-1.2-0.6-1.9-0.8l-0.2-0.1l0.1-0.2
	c0.3-0.9,0.5-1.8,0.6-2.7l0-0.2h3.1L14.3,7.9z"/>
</svg>
