<?xml version="1.0" encoding="utf-8"?>
<!-- Generator: Adobe Illustrator 18.0.0, SVG Export Plug-In . SVG Version: 6.00 Build 0)  -->
<!DOCTYPE svg PUBLIC "-//W3C//DTD SVG 1.1//EN" "http://www.w3.org/Graphics/SVG/1.1/DTD/svg11.dtd">
<svg version="1.1" id="Layer_1" xmlns="http://www.w3.org/2000/svg" xmlns:xlink="http://www.w3.org/1999/xlink" x="0px" y="0px"
	 viewBox="0 0 18 14.6" enable-background="new 0 0 18 14.6" xml:space="preserve">
<g>
	<path fill="#4E4E4E" d="M5.7,14.6c-2.1,0-4-0.6-5.7-1.7C0.3,13,0.6,13,0.9,13c1.7,0,3.3-0.6,4.6-1.6c-1.6,0-3-1.1-3.5-2.6
		c0.2,0,0.5,0.1,0.7,0.1c0.3,0,0.7,0,1-0.1C2,8.5,0.7,7,0.7,5.2c0,0,0,0,0,0c0.5,0.3,1.1,0.4,1.7,0.5c-1-0.7-1.6-1.8-1.6-3.1
		c0-0.7,0.2-1.3,0.5-1.9c1.8,2.2,4.5,3.7,7.6,3.9C8.8,4.3,8.8,4,8.8,3.7c0-2,1.7-3.7,3.7-3.7c1.1,0,2,0.4,2.7,1.2
		C16,1,16.8,0.7,17.5,0.3c-0.3,0.9-0.9,1.6-1.6,2C16.6,2.2,17.3,2,18,1.7c-0.5,0.7-1.1,1.4-1.8,1.9c0,0.2,0,0.3,0,0.5
		C16.2,9,12.5,14.6,5.7,14.6"/>
</g>
</svg>
