<?xml version="1.0" encoding="utf-8"?>
<!-- Generator: Adobe Illustrator 18.0.0, SVG Export Plug-In . SVG Version: 6.00 Build 0)  -->
<!DOCTYPE svg PUBLIC "-//W3C//DTD SVG 1.1//EN" "http://www.w3.org/Graphics/SVG/1.1/DTD/svg11.dtd">
<svg version="1.1" id="Layer_1" xmlns="http://www.w3.org/2000/svg" xmlns:xlink="http://www.w3.org/1999/xlink" x="0px" y="0px"
	 viewBox="0 0 17.2 17.2" enable-background="new 0 0 17.2 17.2" xml:space="preserve">
<g>
	<path fill="#4E4E4E" d="M6,17.2c-1.6,0-3.1-0.6-4.2-1.8c-2.3-2.3-2.3-6.1,0-8.5C2.9,5.8,4.4,5.2,6,5.2c0.5,0,1.1,0.1,1.6,0.2l0.1,0
		l5.4-5.4C13.1,0,13.2,0,13.3,0l3.4,0.3c0.1,0,0.2,0.1,0.3,0.3l0.3,3.3c0,0.1,0,0.2-0.1,0.2c0,0-0.1,0.1-0.2,0.1l-2,0.3l-0.1,1.7
		c0,0.1-0.1,0.3-0.3,0.3l-1.8,0.1l-0.1,1.8c0,0.1,0,0.1-0.1,0.2l-1,1l0,0.1c0.6,2.1,0,4.3-1.5,5.8C9.1,16.6,7.6,17.2,6,17.2z M6,5.8
		c-1.5,0-2.8,0.6-3.8,1.6C0,9.5,0,12.9,2.2,15.1c1,1,2.4,1.6,3.8,1.6c1.5,0,2.8-0.6,3.8-1.6c1.2-1.2,1.8-2.9,1.5-4.6
		c-0.1-0.4-0.1-0.7-0.3-1.1l1.1-1.1l0.1-1.9c0-0.1,0.1-0.3,0.3-0.3l1.8-0.1l0.1-1.7c0-0.1,0.1-0.3,0.2-0.3l2-0.3l-0.2-2.8l-3-0.3
		L7.9,6.1C7.5,6,7.2,5.9,6.8,5.9C6.5,5.8,6.3,5.8,6,5.8z"/>
	<path fill="#4E4E4E" d="M5.1,14c-0.5,0-1-0.2-1.3-0.6c-0.7-0.7-0.7-1.9,0-2.7c0.4-0.4,0.8-0.6,1.3-0.6c0.5,0,1,0.2,1.3,0.6
		c0.7,0.7,0.7,1.9,0,2.7C6.1,13.8,5.6,14,5.1,14z M5.1,10.8c-0.4,0-0.7,0.1-0.9,0.4c-0.5,0.5-0.5,1.4,0,1.9c0.2,0.2,0.6,0.4,0.9,0.4
		c0.4,0,0.7-0.1,0.9-0.4c0.5-0.5,0.5-1.4,0-1.9C5.8,10.9,5.4,10.8,5.1,10.8z"/>
	<path fill="#4E4E4E" d="M9.2,7.2c-0.1,0-0.1,0-0.2-0.1C8.9,7,8.9,6.9,9,6.8l4.6-4.6C13.7,2.1,13.8,2,13.9,2s0.1,0,0.2,0.1
		c0.1,0.1,0.1,0.1,0.1,0.2c0,0.1,0,0.1-0.1,0.2L9.4,7.2C9.4,7.2,9.3,7.2,9.2,7.2z"/>
</g>
</svg>
