<?xml version="1.0" encoding="utf-8"?>
<!-- Generator: Adobe Illustrator 18.0.0, SVG Export Plug-In . SVG Version: 6.00 Build 0)  -->
<!DOCTYPE svg PUBLIC "-//W3C//DTD SVG 1.1//EN" "http://www.w3.org/Graphics/SVG/1.1/DTD/svg11.dtd">
<svg version="1.1" id="Layer_1" xmlns="http://www.w3.org/2000/svg" xmlns:xlink="http://www.w3.org/1999/xlink" x="0px" y="0px"
	 viewBox="0 0 16.1 22" enable-background="new 0 0 16.1 22" xml:space="preserve">
<g>
	<path fill="#4E4E4E" d="M8.1,22C3,22,0,20.5,0,18c0-2.3,2.8-3.3,4.7-3.6V15c-2.7,0.5-4.1,1.6-4.1,3c0,2.5,3.9,3.3,7.5,3.3
		s7.5-0.9,7.5-3.3c0-1.4-1.5-2.5-4.1-3v-0.6c1.9,0.4,4.7,1.3,4.7,3.6C16.1,20.5,13.1,22,8.1,22z"/>
	<path fill="#4E4E4E" d="M8.1,20c-2.8,0-5.6-0.7-5.6-2.1c0-0.9,1.3-1.4,2.3-1.7v0.6C3.8,17.1,3,17.5,3,17.9c0,0.6,1.9,1.5,5,1.5
		s5-0.9,5-1.5c0-0.4-0.9-0.8-1.7-1.1v-0.6c1,0.2,2.3,0.8,2.3,1.7C13.7,19.3,10.8,20,8.1,20z"/>
	<path fill="#4E4E4E" d="M9.3,17.6l0-4.8h0.2c0.7,0,1.3-0.6,1.3-1.3V7.6c0-0.7-0.6-1.3-1.3-1.3h-3c-0.7,0-1.3,0.6-1.3,1.3v3.9
		c0,0.7,0.6,1.3,1.3,1.3h0.2l0,4.8H6.2v-4.3l-0.2,0c-0.8-0.2-1.3-0.9-1.3-1.7V7.6c0-1,0.8-1.8,1.8-1.8h3c1,0,1.8,0.8,1.8,1.8v3.9
		c0,0.8-0.5,1.5-1.3,1.7l-0.2,0v4.3H9.3z"/>
	<path fill="#4E4E4E" d="M8,4.3c-1.2,0-2.1-1-2.1-2.1S6.9,0,8,0s2.1,1,2.1,2.1S9.2,4.3,8,4.3z M8,0.6c-0.9,0-1.6,0.7-1.6,1.6
		C6.5,3,7.2,3.7,8,3.7c0.9,0,1.6-0.7,1.6-1.6C9.6,1.3,8.9,0.6,8,0.6z"/>
</g>
</svg>
