<?xml version="1.0" encoding="utf-8"?>
<!-- Generator: Adobe Illustrator 18.0.0, SVG Export Plug-In . SVG Version: 6.00 Build 0)  -->
<!DOCTYPE svg PUBLIC "-//W3C//DTD SVG 1.1//EN" "http://www.w3.org/Graphics/SVG/1.1/DTD/svg11.dtd">
<svg version="1.1" id="Layer_1" xmlns="http://www.w3.org/2000/svg" xmlns:xlink="http://www.w3.org/1999/xlink" x="0px" y="0px"
	 viewBox="0 0 12.1 16.8" enable-background="new 0 0 12.1 16.8" xml:space="preserve">
<path fill="#4E4E4E" d="M11.2,5.2c0.1,1.2-0.3,2.1-1.3,2.6c0.8,0.2,1.4,0.5,1.8,1C12,9.3,12.2,10,12.1,11c0,0.5-0.2,0.9-0.3,1.3
	c-0.2,0.4-0.4,0.7-0.6,0.9c-0.3,0.2-0.6,0.4-1,0.6C9.7,13.9,9.3,14,8.9,14c-0.4,0.1-0.9,0.1-1.5,0.2v2.6H5.9v-2.5
	c-0.5,0-0.9,0-1.2,0v2.5H3.1v-2.6c-0.1,0-0.3,0-0.5,0c-0.2,0-0.4,0-0.6,0H0l0.3-1.8h1.1c0.3,0,0.5-0.2,0.6-0.5V7.8h0.2
	c0,0-0.1,0-0.2,0V4.9C1.9,4.4,1.6,4.2,1.1,4.2H0V2.5l2.1,0c0.4,0,0.8,0,1,0V0h1.6v2.5c0.6,0,1,0,1.2,0V0h1.6v2.5
	c0.5,0,1,0.1,1.4,0.2C9.3,2.9,9.6,3,10,3.2c0.3,0.2,0.6,0.5,0.8,0.8C11,4.3,11.2,4.7,11.2,5.2z M8.3,5.9c0-0.2,0-0.4-0.1-0.6
	C8.1,5.1,8,5,7.9,4.8C7.8,4.7,7.6,4.6,7.4,4.6C7.2,4.5,7,4.4,6.8,4.4c-0.2,0-0.4-0.1-0.6-0.1c-0.2,0-0.4,0-0.6,0c-0.1,0-0.3,0-0.5,0
	c-0.2,0-0.4,0-0.4,0v3.1c0,0,0.1,0,0.3,0c0.2,0,0.4,0,0.5,0c0.1,0,0.3,0,0.5,0c0.2,0,0.4,0,0.6-0.1c0.1,0,0.3-0.1,0.5-0.1
	c0.2,0,0.4-0.1,0.5-0.2C7.7,7,7.8,6.9,8,6.8s0.2-0.2,0.3-0.4C8.3,6.2,8.3,6,8.3,5.9z M9,10.7C9,10.4,9,10.2,8.9,10
	C8.8,9.8,8.7,9.7,8.5,9.5C8.4,9.4,8.2,9.3,7.9,9.2C7.7,9.2,7.5,9.1,7.3,9C7.1,9,6.8,9,6.5,9c-0.3,0-0.5,0-0.7,0c-0.2,0-0.4,0-0.7,0
	c-0.3,0-0.4,0-0.5,0v3.4c0.1,0,0.2,0,0.4,0c0.2,0,0.4,0,0.5,0c0.1,0,0.3,0,0.5,0c0.2,0,0.4,0,0.6,0c0.2,0,0.4,0,0.6-0.1
	c0.2,0,0.4-0.1,0.6-0.1C8,12,8.1,12,8.3,11.9c0.2-0.1,0.3-0.2,0.4-0.3c0.1-0.1,0.2-0.2,0.2-0.4C9,11,9,10.8,9,10.7z"/>
</svg>
