<?xml version="1.0" encoding="utf-8"?>
<!-- Generator: Adobe Illustrator 18.0.0, SVG Export Plug-In . SVG Version: 6.00 Build 0)  -->
<!DOCTYPE svg PUBLIC "-//W3C//DTD SVG 1.1//EN" "http://www.w3.org/Graphics/SVG/1.1/DTD/svg11.dtd">
<svg version="1.1" id="Layer_1" xmlns="http://www.w3.org/2000/svg" xmlns:xlink="http://www.w3.org/1999/xlink" x="0px" y="0px"
	 viewBox="0 0 191.8 210.6" enable-background="new 0 0 191.8 210.6" xml:space="preserve">
<g>
	<g>
		<g>
			<path fill="#FFFFFF" d="M16.6,197.8h3.5v1.3c-0.6,0.9-1.9,2.2-4,2.2c-2.5,0-4.4-1.8-4.4-4.4c0-2.6,1.8-4.4,4.3-4.4
				c1.5,0,2.9,0.7,3.6,1.9L21,194c-1-1.7-2.7-2.8-4.9-2.8c-3.1,0-5.6,2.4-5.6,5.6c0,3.3,2.5,5.7,5.6,5.7c2.1,0,3.4-1.2,4-1.8h0
				c0,0,0,0.3,0,1.5h1v-5.5h-4.4V197.8z"/>
			<path fill="#FFFFFF" d="M31.4,191.2c-3.1,0-5.6,2.4-5.6,5.6c0,3.3,2.5,5.6,5.6,5.6c3.1,0,5.6-2.4,5.6-5.6
				C37,193.5,34.5,191.2,31.4,191.2 M31.4,201.2c-2.5,0-4.3-1.8-4.3-4.4c0-2.6,1.9-4.4,4.3-4.4c2.4,0,4.3,1.8,4.3,4.4
				C35.7,199.4,33.9,201.2,31.4,201.2"/>
			<path fill="#FFFFFF" d="M46.3,199.1c-0.3,0.8-0.6,1.6-0.6,1.6h0c0,0-0.3-0.8-0.6-1.6l-3.3-7.7h-1.4l4.6,10.8h1.3l4.6-10.8h-1.4
				L46.3,199.1z"/>
			<polygon fill="#FFFFFF" points="56.8,197.2 61.4,197.2 61.4,196 56.8,196 56.8,192.5 62.9,192.5 62.9,191.3 55.6,191.3 
				55.6,202.1 62.9,202.1 62.9,201 56.8,201 			"/>
			<path fill="#FFFFFF" d="M75.7,194.8c0-2.1-1.5-3.4-4-3.4h-3.2v10.8h1.2V198h2c0.2,0,0.4,0,0.6,0l2.4,4.1h1.4l-2.6-4.3
				C74.9,197.4,75.7,196.3,75.7,194.8 M71.8,197.2h-2.2v-4.7h2.2c1.7,0,2.6,0.9,2.6,2.3C74.4,196.1,73.5,197.2,71.8,197.2"/>
			<path fill="#FFFFFF" d="M88.8,197.1c0,1.5,0.1,3,0.1,3h0c0,0-0.8-1.2-1.6-2.3l-4.8-6.5h-1.2v10.8h1.5v-5.6c0-1.7-0.2-3.2-0.2-3.2
				h0c0,0,0.7,1,1.6,2.3l4.8,6.5h1.3v-10.8h-1.5V197.1z"/>
			<path fill="#FFFFFF" d="M99.5,191.3l-4.7,10.8h1.4l1.2-2.6h5.4l1.2,2.6h1.4l-4.7-10.8H99.5z M97.8,198.3l1.7-4.1
				c0.2-0.6,0.5-1.4,0.5-1.4h0c0,0,0.3,0.9,0.5,1.4l1.7,4.1H97.8z"/>
			<path fill="#FFFFFF" d="M117.6,197.1c0,1.5,0,3,0,3h0c0,0-0.8-1.2-1.6-2.3l-4.8-6.5h-1.1v10.8h1.2v-5.6c0-1.7,0-3.2,0-3.2h0
				c0,0,0.7,1,1.6,2.3l4.8,6.5h1.1v-10.8h-1.2V197.1z"/>
			<path fill="#FFFFFF" d="M129.6,201.2c-2.4,0-4.3-1.8-4.3-4.4c0-2.6,1.8-4.4,4.3-4.4c1.5,0,2.9,0.7,3.6,1.9l1.3-0.3
				c-1-1.7-2.8-2.8-4.9-2.8c-3.1,0-5.6,2.4-5.6,5.6c0,3.3,2.5,5.6,5.6,5.6c2.3,0,4.2-1.2,5.1-3.2l-1.3-0.3
				C132.7,200.3,131.2,201.2,129.6,201.2"/>
			<polygon fill="#FFFFFF" points="140.6,197.2 145.6,197.2 145.6,196 140.6,196 140.6,192.5 146.7,192.5 146.7,191.3 139.5,191.3 
				139.5,202.1 146.7,202.1 146.7,201 140.6,201 			"/>
			<path fill="#FFFFFF" d="M166,194.6c0-1.9-1.5-3.4-3.7-3.4c-1.9,0-3.4,1-3.9,2.9l1.2,0.3c0.3-1.2,1.3-2.1,2.7-2.1
				c1.4,0,2.4,1,2.4,2.3c0,1-0.6,1.9-1.4,2.5c-1.6,1.4-3.2,2.8-5,4.1v0.9h7.6V201h-3.7c-1.2,0-2,0.1-2,0.1h0c0,0,1.7-1.2,3-2.3
				C164.4,197.8,166,196.8,166,194.6"/>
			<path fill="#FFFFFF" d="M171.4,200.9c-0.4,0-0.8,0.3-0.8,0.8c0,0.4,0.3,0.8,0.8,0.8c0.4,0,0.8-0.3,0.8-0.8
				C172.2,201.2,171.8,200.9,171.4,200.9"/>
			<path fill="#FFFFFF" d="M181.1,191.2c-3.1,0-4.9,2.6-4.9,5.6c0,3,1.8,5.6,4.9,5.6c3.1,0,4.9-2.6,4.9-5.6
				C186,193.8,184.2,191.2,181.1,191.2 M181.1,201.2c-2.4,0-3.6-2-3.6-4.4c0-2.3,1.2-4.4,3.6-4.4c2.4,0,3.6,2,3.6,4.4
				C184.7,199.2,183.5,201.2,181.1,201.2"/>
			<path fill="#FFFFFF" d="M17.8,167.5c3.1,0,5.2,1.8,5.2,4.4c0,1.8-1.5,3.4-3,3.7v0c1.8,0.2,4.1,2,4.1,4.6c0,3.1-2.2,5.3-6,5.3H11
				v-18H17.8z M17.4,175c2.1,0,3.5-1.3,3.5-2.9c0-1.7-1.4-2.8-3.5-2.8h-4.3v5.7H17.4z M18.1,183.7c2.2,0,3.9-1.3,3.9-3.5
				c0-2.1-1.8-3.5-4-3.5h-4.8v7H18.1z"/>
			<rect x="32.8" y="167.5" fill="#FFFFFF" width="2.1" height="18"/>
			<polygon fill="#FFFFFF" points="57.2,167.5 57.2,169.5 51.2,169.5 51.2,185.5 49.1,185.5 49.1,169.5 43.1,169.5 43.1,167.5 			
				"/>
			<path fill="#FFFFFF" d="M80.2,167.5v18h-2l-8-10.8c-1.5-2.1-2.7-3.8-2.7-3.8h0c0,0,0.1,2.2,0.1,5.1v9.5h-2.1v-18h2l8,10.8
				c1.4,1.8,2.7,3.7,2.7,3.7h0c0,0-0.1-2.4-0.1-5v-9.5H80.2z"/>
			<path fill="#FFFFFF" d="M101.2,180.8h-9l-2,4.7h-2.3l7.8-18h1.9l7.8,18h-2.3L101.2,180.8z M100.4,178.9l-2.9-6.7
				c-0.4-0.9-0.8-2.2-0.8-2.2h0c0,0-0.5,1.3-0.9,2.2l-2.9,6.7H100.4z"/>
			<polygon fill="#FFFFFF" points="123.6,167.5 123.6,169.5 117.5,169.5 117.5,185.5 115.4,185.5 115.4,169.5 109.4,169.5 
				109.4,167.5 			"/>
			<rect x="131.7" y="167.5" fill="#FFFFFF" width="2.1" height="18"/>
			<path fill="#FFFFFF" d="M151.7,167.1c5.2,0,9.4,3.9,9.4,9.4c0,5.4-4.2,9.4-9.4,9.4c-5.2,0-9.4-3.9-9.4-9.4
				C142.3,171.1,146.5,167.1,151.7,167.1 M151.7,183.8c4.1,0,7.2-3,7.2-7.3c0-4.4-3.1-7.3-7.2-7.3c-4.1,0-7.2,2.9-7.2,7.3
				C144.5,180.8,147.6,183.8,151.7,183.8"/>
			<path fill="#FFFFFF" d="M184.3,167.5v18h-2l-8-10.8c-1.5-2.1-2.7-3.8-2.7-3.8h0c0,0,0.1,2.2,0.1,5.1v9.5h-2.1v-18h2l8,10.8
				c1.4,1.8,2.7,3.7,2.7,3.7h0c0,0-0.1-2.4-0.1-5v-9.5H184.3z"/>
			<rect x="9" y="179.7" fill="#FFFFFF" width="5.8" height="1.5"/>
		</g>
	</g>
	<g>
		<path fill="#FFFFFF" d="M97.3,45.2c-19.4,0-35.2,15.8-35.2,35.2c0,19.4,15.8,35.2,35.2,35.2s35.2-15.8,35.2-35.2
			C132.5,60.9,116.7,45.2,97.3,45.2 M97.3,112.9c-18,0-32.6-14.6-32.6-32.6c0-18,14.6-32.6,32.6-32.6c18,0,32.6,14.6,32.6,32.6
			C129.9,98.3,115.3,112.9,97.3,112.9"/>
		<path fill="#FFFFFF" d="M48.3,126.3l-17.1,17.1c-0.1,0.1-0.1,0.2-0.1,0.3c0,0.1,0.1,0.3,0.1,0.3c0.1,0.1,0.2,0.1,0.3,0.1
			c0.1,0,0.3-0.1,0.3-0.1L49,127c0.2-0.2,0.2-0.5,0-0.7C48.8,126.1,48.5,126.1,48.3,126.3"/>
		<path fill="#FFFFFF" d="M163.8,11.5c-0.2-0.2-0.5-0.2-0.7,0l-15.3,15.3c-0.1,0.1-0.1,0.2-0.1,0.3c0,0.1,0.1,0.3,0.1,0.3
			c0.1,0.1,0.2,0.1,0.3,0.1c0.1,0,0.2-0.1,0.3-0.1l15.3-15.3c0.1-0.1,0.1-0.2,0.1-0.3C163.9,11.7,163.9,11.6,163.8,11.5"/>
		<path fill="#FFFFFF" d="M87.7,24.8l-0.3-2c-0.7,0.1-1.3,0.2-2,0.4l0.4,1.9C86.4,25,87,24.9,87.7,24.8"/>
		<path fill="#FFFFFF" d="M83.9,25.5l-0.5-1.9c-0.7,0.2-1.3,0.3-1.9,0.5L82,26C82.6,25.9,83.2,25.7,83.9,25.5"/>
		<path fill="#FFFFFF" d="M95.4,24l-0.1-2c-0.7,0-1.3,0.1-2,0.1l0.1,2C94.1,24,94.8,24,95.4,24"/>
		<path fill="#FFFFFF" d="M91.5,24.2l-0.2-2c-0.7,0.1-1.3,0.1-2,0.2l0.3,2C90.2,24.4,90.9,24.3,91.5,24.2"/>
		<path fill="#FFFFFF" d="M80.1,26.6l-0.6-1.9c-0.6,0.2-1.3,0.4-1.9,0.6l0.7,1.9C78.9,27,79.5,26.8,80.1,26.6"/>
		<path fill="#FFFFFF" d="M76.5,27.9l-0.7-1.8c-0.6,0.2-1.2,0.5-1.9,0.8l0.8,1.8C75.3,28.4,75.9,28.1,76.5,27.9"/>
		<path fill="#FFFFFF" d="M145.1,49.6l1.7-1.1c-0.4-0.6-0.7-1.1-1.1-1.7L144,48C144.4,48.5,144.7,49.1,145.1,49.6"/>
		<path fill="#FFFFFF" d="M153.9,73.1c0.1,0.6,0.2,1.3,0.2,1.9l2-0.2c-0.1-0.7-0.2-1.3-0.2-2L153.9,73.1z"/>
		<path fill="#FFFFFF" d="M103.4,22.2c-0.7-0.1-1.3-0.1-2-0.2l-0.1,2c0.6,0,1.3,0.1,1.9,0.2L103.4,22.2z"/>
		<path fill="#FFFFFF" d="M72.9,29.5L72,27.7c-0.6,0.3-1.2,0.6-1.8,0.9l0.9,1.8C71.7,30,72.3,29.7,72.9,29.5"/>
		<path fill="#FFFFFF" d="M107.4,22.8c-0.7-0.1-1.3-0.2-2-0.3l-0.3,2c0.6,0.1,1.3,0.2,1.9,0.3L107.4,22.8z"/>
		<path fill="#FFFFFF" d="M99.3,24l0.1-2c-0.6,0-1.3,0-1.9,0h-0.3v2h0.3C98.1,24,98.7,23.9,99.3,24"/>
		<path fill="#FFFFFF" d="M153.3,69.2c0.1,0.6,0.3,1.3,0.4,1.9l2-0.3c-0.1-0.7-0.2-1.3-0.4-2L153.3,69.2z"/>
		<path fill="#FFFFFF" d="M66.1,33.3l-1.1-1.7c-0.6,0.4-1.1,0.8-1.7,1.1l1.1,1.6C65.1,34,65.6,33.6,66.1,33.3"/>
		<path fill="#FFFFFF" d="M54.5,43.5L53,42.2c-0.4,0.5-0.9,1-1.3,1.5l1.5,1.3C53.6,44.5,54,44,54.5,43.5"/>
		<path fill="#FFFFFF" d="M41,88.7c-0.1-0.6-0.2-1.3-0.2-1.9l-2,0.2c0.1,0.7,0.1,1.3,0.2,2L41,88.7z"/>
		<path fill="#FFFFFF" d="M52,46.5l-1.6-1.2c-0.4,0.5-0.8,1.1-1.2,1.6l1.6,1.1C51.2,47.5,51.6,47,52,46.5"/>
		<path fill="#FFFFFF" d="M49.7,49.7l-1.7-1.1c-0.4,0.6-0.7,1.1-1.1,1.7l1.7,1C49,50.8,49.4,50.2,49.7,49.7"/>
		<path fill="#FFFFFF" d="M41.6,92.6c-0.1-0.6-0.3-1.3-0.4-1.9l-2,0.3c0.1,0.7,0.2,1.3,0.4,2L41.6,92.6z"/>
		<path fill="#FFFFFF" d="M38.5,83c0,0.7,0.1,1.4,0.1,2l2-0.1c0-0.6-0.1-1.3-0.1-1.9L38.5,83z"/>
		<path fill="#FFFFFF" d="M111.3,23.6c-0.7-0.2-1.3-0.3-2-0.4l-0.4,1.9c0.6,0.1,1.3,0.3,1.9,0.4L111.3,23.6z"/>
		<path fill="#FFFFFF" d="M57.1,40.6l-1.4-1.4c-0.5,0.5-0.9,1-1.4,1.4l1.5,1.4C56.2,41.6,56.7,41.1,57.1,40.6"/>
		<path fill="#FFFFFF" d="M69.5,31.2l-1-1.7c-0.6,0.3-1.2,0.7-1.7,1l1,1.7C68.3,31.9,68.9,31.6,69.5,31.2"/>
		<path fill="#FFFFFF" d="M42.5,96.4c-0.2-0.6-0.3-1.3-0.5-1.9l-1.9,0.5c0.2,0.6,0.3,1.3,0.5,1.9L42.5,96.4z"/>
		<path fill="#FFFFFF" d="M63,35.5l-1.2-1.6c-0.5,0.4-1.1,0.8-1.6,1.2l1.3,1.5C61.9,36.3,62.5,35.9,63,35.5"/>
		<path fill="#FFFFFF" d="M60,38l-1.3-1.5c-0.5,0.4-1,0.9-1.5,1.4l1.4,1.4C59,38.8,59.5,38.4,60,38"/>
		<path fill="#FFFFFF" d="M103.5,139.6c0.7-0.1,1.3-0.1,2-0.2l-0.3-2c-0.6,0.1-1.3,0.2-1.9,0.2L103.5,139.6z"/>
		<path fill="#FFFFFF" d="M95.5,139.8c0.7,0,1.3,0.1,1.9,0.1h0.1v-2c-0.7,0-1.3,0-2-0.1L95.5,139.8z"/>
		<path fill="#FFFFFF" d="M146.1,51.2c0.3,0.6,0.7,1.1,1,1.7l1.7-1c-0.3-0.6-0.7-1.2-1-1.7L146.1,51.2z"/>
		<path fill="#FFFFFF" d="M133.1,33.9c-0.5-0.4-1.1-0.8-1.6-1.2l-1.1,1.6c0.5,0.4,1.1,0.8,1.6,1.2L133.1,33.9z"/>
		<path fill="#FFFFFF" d="M107.5,139.1c0.7-0.1,1.3-0.2,2-0.4l-0.4-1.9c-0.6,0.1-1.3,0.3-1.9,0.4L107.5,139.1z"/>
		<path fill="#FFFFFF" d="M148,54.6c0.3,0.6,0.6,1.2,0.9,1.7l1.8-0.9c-0.3-0.6-0.6-1.2-0.9-1.8L148,54.6z"/>
		<path fill="#FFFFFF" d="M93.4,139.8l0.1-2c-0.6,0-1.3-0.1-1.9-0.2l-0.2,2C92.1,139.7,92.8,139.8,93.4,139.8"/>
		<path fill="#FFFFFF" d="M89.4,139.4l0.3-2c-0.6-0.1-1.3-0.2-1.9-0.3l-0.3,2C88.1,139.2,88.8,139.3,89.4,139.4"/>
		<path fill="#FFFFFF" d="M128.7,128.6l1.1,1.7c0.6-0.4,1.1-0.7,1.7-1.1l-1.1-1.6C129.8,127.9,129.2,128.3,128.7,128.6"/>
		<path fill="#FFFFFF" d="M112.9,135.8c-0.6,0.2-1.3,0.3-1.9,0.5l0.5,1.9c0.7-0.2,1.3-0.3,1.9-0.5L112.9,135.8z"/>
		<path fill="#FFFFFF" d="M123.7,131.6c-0.6,0.3-1.2,0.6-1.7,0.9l0.9,1.8c0.6-0.3,1.2-0.6,1.8-0.9L123.7,131.6z"/>
		<path fill="#FFFFFF" d="M140.4,43.4l1.5-1.3c-0.4-0.5-0.9-1-1.4-1.5l-1.4,1.4C139.5,42.5,140,42.9,140.4,43.4"/>
		<path fill="#FFFFFF" d="M115.3,137.2c0.6-0.2,1.3-0.4,1.9-0.6l-0.7-1.9c-0.6,0.2-1.2,0.4-1.8,0.6L115.3,137.2z"/>
		<path fill="#FFFFFF" d="M119.1,135.8c0.6-0.2,1.2-0.5,1.9-0.8l-0.8-1.8c-0.6,0.3-1.2,0.5-1.8,0.7L119.1,135.8z"/>
		<path fill="#FFFFFF" d="M122.7,27.6c-0.6-0.3-1.2-0.6-1.8-0.8l-0.8,1.8c0.6,0.3,1.2,0.5,1.8,0.8L122.7,27.6z"/>
		<path fill="#FFFFFF" d="M115.2,24.7c-0.6-0.2-1.3-0.4-1.9-0.6l-0.5,1.9c0.6,0.2,1.3,0.4,1.9,0.6L115.2,24.7z"/>
		<path fill="#FFFFFF" d="M126.3,29.5c-0.6-0.3-1.2-0.7-1.8-1l-0.9,1.8c0.6,0.3,1.2,0.6,1.7,0.9L126.3,29.5z"/>
		<path fill="#FFFFFF" d="M129.8,31.6c-0.6-0.4-1.1-0.7-1.7-1.1l-1,1.7c0.6,0.3,1.1,0.7,1.6,1L129.8,31.6z"/>
		<path fill="#FFFFFF" d="M151.1,61.7c0.2,0.6,0.4,1.2,0.6,1.8l1.9-0.6c-0.2-0.6-0.4-1.3-0.6-1.9L151.1,61.7z"/>
		<path fill="#FFFFFF" d="M152.3,65.5c0.2,0.6,0.3,1.3,0.5,1.9l1.9-0.5c-0.2-0.7-0.3-1.3-0.5-1.9L152.3,65.5z"/>
		<path fill="#FFFFFF" d="M119,26c-0.6-0.2-1.3-0.5-1.9-0.7l-0.7,1.9c0.6,0.2,1.2,0.4,1.8,0.7L119,26z"/>
		<path fill="#FFFFFF" d="M85.5,138.7l0.4-1.9c-0.6-0.1-1.3-0.3-1.9-0.4l-0.5,1.9C84.2,138.4,84.8,138.6,85.5,138.7"/>
		<path fill="#FFFFFF" d="M149.7,58.1c0.3,0.6,0.5,1.2,0.7,1.8l1.8-0.7c-0.2-0.6-0.5-1.2-0.8-1.9L149.7,58.1z"/>
		<path fill="#FFFFFF" d="M80.2,135.3l-0.6,1.9c0.6,0.2,1.3,0.4,1.9,0.6l0.5-1.9C81.5,135.7,80.8,135.5,80.2,135.3"/>
		<path fill="#FFFFFF" d="M78.4,134.7c-0.6-0.2-1.2-0.4-1.8-0.7l-0.7,1.8c0.6,0.2,1.3,0.5,1.9,0.7L78.4,134.7z"/>
		<path fill="#FFFFFF" d="M67.8,129.7c-0.6-0.3-1.1-0.7-1.6-1l-1.1,1.7c0.6,0.4,1.1,0.7,1.7,1.1L67.8,129.7z"/>
		<path fill="#FFFFFF" d="M69.5,130.6l-1,1.7c0.6,0.3,1.2,0.7,1.8,1l0.9-1.8C70.7,131.3,70.1,131,69.5,130.6"/>
		<path fill="#FFFFFF" d="M142.8,46.4l1.6-1.2c-0.4-0.5-0.8-1.1-1.2-1.6l-1.5,1.3C142,45.4,142.5,45.9,142.8,46.4"/>
		<path fill="#FFFFFF" d="M145.1,112.2l1.7,1.1c0.4-0.6,0.7-1.1,1.1-1.7l-1.7-1C145.8,111.1,145.5,111.7,145.1,112.2"/>
		<path fill="#FFFFFF" d="M137.7,37.8l-1.4,1.5c0.5,0.4,0.9,0.9,1.4,1.4l1.4-1.4C138.7,38.7,138.2,38.2,137.7,37.8"/>
		<path fill="#FFFFFF" d="M43.7,100.1c-0.2-0.6-0.4-1.2-0.6-1.8l-1.9,0.6c0.2,0.6,0.4,1.3,0.6,1.9L43.7,100.1z"/>
		<path fill="#FFFFFF" d="M140.4,118.4l1.5,1.3c0.4-0.5,0.9-1,1.3-1.5l-1.5-1.3C141.2,117.4,140.8,117.9,140.4,118.4"/>
		<path fill="#FFFFFF" d="M134.9,123.9l1.3,1.5c0.5-0.4,1-0.9,1.5-1.3l-1.4-1.4C135.9,123.1,135.4,123.5,134.9,123.9"/>
		<path fill="#FFFFFF" d="M73,132.4l-0.9,1.8c0.6,0.3,1.2,0.6,1.8,0.8l0.8-1.8C74.1,133,73.6,132.7,73,132.4"/>
		<path fill="#FFFFFF" d="M99.4,137.9l0.1,2c0.7,0,1.3-0.1,2-0.1l-0.1-2C100.7,137.9,100.1,137.9,99.4,137.9"/>
		<path fill="#FFFFFF" d="M134.6,35.1l-1.3,1.5c0.5,0.4,1,0.8,1.5,1.3l1.3-1.5C135.7,36,135.2,35.6,134.6,35.1"/>
		<path fill="#FFFFFF" d="M126.4,132.4c0.6-0.3,1.2-0.7,1.7-1l-1-1.7c-0.6,0.3-1.1,0.7-1.7,1L126.4,132.4z"/>
		<path fill="#FFFFFF" d="M131.9,126.4l1.2,1.6c0.5-0.4,1.1-0.8,1.6-1.2l-1.3-1.5C132.9,125.6,132.4,126,131.9,126.4"/>
		<path fill="#FFFFFF" d="M137.7,121.3l1.4,1.4c0.5-0.5,0.9-1,1.4-1.4l-1.4-1.4C138.7,120.3,138.2,120.8,137.7,121.3"/>
		<path fill="#FFFFFF" d="M154.2,86.8l2,0.2c0.1-0.7,0.1-1.3,0.2-2l-2-0.1C154.3,85.5,154.2,86.1,154.2,86.8"/>
		<path fill="#FFFFFF" d="M153.6,90.6l2,0.3c0.1-0.7,0.2-1.3,0.3-2l-2-0.3C153.8,89.3,153.7,90,153.6,90.6"/>
		<path fill="#FFFFFF" d="M147.1,108.9l1.7,1c0.3-0.6,0.7-1.2,1-1.8l-1.8-0.9C147.8,107.7,147.5,108.3,147.1,108.9"/>
		<path fill="#FFFFFF" d="M156.4,78.8c0-0.7-0.1-1.3-0.1-2l-2,0.1c0,0.6,0.1,1.3,0.1,1.9L156.4,78.8z"/>
		<path fill="#FFFFFF" d="M156.4,80.6h-2v0.3c0,0.6,0,1.3,0,1.9l2,0.1c0-0.7,0-1.3,0-2V80.6z"/>
		<path fill="#FFFFFF" d="M148.9,105.4l1.8,0.9c0.3-0.6,0.6-1.2,0.8-1.8l-1.8-0.8C149.5,104.2,149.2,104.8,148.9,105.4"/>
		<path fill="#FFFFFF" d="M150.5,101.9l1.8,0.7c0.2-0.6,0.5-1.3,0.7-1.9l-1.9-0.7C151,100.6,150.7,101.3,150.5,101.9"/>
		<path fill="#FFFFFF" d="M152.9,94.4l1.9,0.5c0.2-0.7,0.3-1.3,0.4-2l-1.9-0.4C153.1,93.2,153,93.8,152.9,94.4"/>
		<path fill="#FFFFFF" d="M151.8,98.2l1.9,0.6c0.2-0.6,0.4-1.3,0.6-1.9l-1.9-0.5C152.2,96.9,152,97.6,151.8,98.2"/>
		<path fill="#FFFFFF" d="M142.9,115.4l1.6,1.2c0.4-0.5,0.8-1.1,1.2-1.6l-1.6-1.1C143.6,114.4,143.3,114.9,142.9,115.4"/>
		<path fill="#FFFFFF" d="M40.7,75.2l-2-0.2c-0.1,0.7-0.1,1.3-0.2,2l2,0.1C40.6,76.4,40.7,75.8,40.7,75.2"/>
		<path fill="#FFFFFF" d="M40.5,80.9c0-0.6,0-1.3,0-1.9l-2-0.1c0,0.6,0,1.3,0,2V81h2V80.9z"/>
		<path fill="#FFFFFF" d="M42,67.5L40.1,67c-0.2,0.7-0.3,1.3-0.4,2l1.9,0.4C41.7,68.8,41.9,68.1,42,67.5"/>
		<path fill="#FFFFFF" d="M49.8,112.2l-1.7,1.1c0.4,0.6,0.7,1.1,1.1,1.7l1.6-1.1C50.5,113.3,50.1,112.8,49.8,112.2"/>
		<path fill="#FFFFFF" d="M41.2,71.3l-2-0.3c-0.1,0.7-0.2,1.3-0.3,2l2,0.3C41,72.6,41.1,71.9,41.2,71.3"/>
		<path fill="#FFFFFF" d="M58.7,125.4c0.5,0.4,1,0.9,1.5,1.3l1.3-1.5c-0.5-0.4-1-0.8-1.5-1.3L58.7,125.4z"/>
		<path fill="#FFFFFF" d="M55.7,122.6c0.5,0.5,1,0.9,1.4,1.4l1.4-1.4c-0.5-0.4-0.9-0.9-1.4-1.4L55.7,122.6z"/>
		<path fill="#FFFFFF" d="M54.5,118.4l-1.5,1.3c0.4,0.5,0.9,1,1.3,1.5l1.4-1.4C55.3,119.4,54.9,118.9,54.5,118.4"/>
		<path fill="#FFFFFF" d="M45.2,103.7c-0.3-0.6-0.5-1.2-0.7-1.8l-1.8,0.7c0.2,0.6,0.5,1.2,0.8,1.9L45.2,103.7z"/>
		<path fill="#FFFFFF" d="M46.8,107.2c-0.3-0.6-0.6-1.2-0.9-1.7l-1.8,0.9c0.3,0.6,0.6,1.2,0.9,1.8L46.8,107.2z"/>
		<path fill="#FFFFFF" d="M48.7,110.6c-0.3-0.6-0.7-1.1-1-1.7l-1.7,1c0.3,0.6,0.7,1.2,1,1.7L48.7,110.6z"/>
		<path fill="#FFFFFF" d="M61.8,127.9c0.5,0.4,1.1,0.8,1.6,1.2l1.1-1.6c-0.5-0.4-1.1-0.8-1.6-1.2L61.8,127.9z"/>
		<path fill="#FFFFFF" d="M43.1,63.7l-1.9-0.6c-0.2,0.6-0.4,1.3-0.6,1.9l1.9,0.5C42.7,65,42.9,64.4,43.1,63.7"/>
		<path fill="#FFFFFF" d="M44.4,60.1l-1.8-0.7c-0.2,0.6-0.5,1.3-0.7,1.9l1.9,0.7C43.9,61.3,44.1,60.7,44.4,60.1"/>
		<path fill="#FFFFFF" d="M47.7,53L46,52c-0.3,0.6-0.7,1.2-1,1.8l1.8,0.9C47.1,54.2,47.4,53.6,47.7,53"/>
		<path fill="#FFFFFF" d="M45.9,56.5l-1.8-0.9c-0.3,0.6-0.6,1.2-0.8,1.8l1.8,0.8C45.4,57.7,45.6,57.1,45.9,56.5"/>
		<path fill="#FFFFFF" d="M52,115.4l-1.6,1.2c0.4,0.5,0.8,1.1,1.2,1.6l1.5-1.3C52.8,116.4,52.4,115.9,52,115.4"/>
		<path fill="#FFFFFF" d="M97,60.1c-3.8,0-7.2,2.7-7.2,6.1v7.5c0,2.4,1.7,4.4,3.9,5.4c0,0,0-11.9,0-12c0-1.8,1.4-3.2,3.2-3.2
			s3.2,1.4,3.2,3.2c0,0.1,0,12,0,12c2.3-1,4-3.1,4-5.5v-7.5C104.2,62.9,100.8,60.1,97,60.1"/>
		<path fill="#FFFFFF" d="M96.9,71.2c-1.1,0-1.9,0.9-1.9,2c0,0,0,14.6,0,15.7c0,1.1,0.9,2,2,2c1.1,0,1.9-0.9,1.9-2
			c0,0,0-15.7,0-15.7C98.9,72.1,98,71.2,96.9,71.2"/>
		<path fill="#FFFFFF" d="M100.2,82.9c0,0,0,11.9,0,12c0,1.8-1.4,3.2-3.2,3.2s-3.2-1.4-3.2-3.2c0-0.1,0-12,0-12c-2.3,1-4,3.1-4,5.5
			v7.5c0,3.4,3.4,6.1,7.2,6.1c3.8,0,7.2-2.7,7.2-6.1v-7.5C104.2,86,102.5,83.9,100.2,82.9"/>
	</g>
</g>
</svg>
